<svg width="150" height="150" viewBox="0 0 150 150" fill="none" xmlns="http://www.w3.org/2000/svg">
<rect width="150" height="150" rx="30" fill="url(#paint0_linear_152_64)" fill-opacity="0.3"/>
<g clip-path="url(#clip0_152_64)">
<path d="M59.6591 82.9773C58.6477 82.9773 57.659 83.2772 56.8181 83.8391C55.9772 84.401 55.3217 85.1996 54.9347 86.134C54.5477 87.0684 54.4464 88.0966 54.6437 89.0885C54.841 90.0805 55.3281 90.9916 56.0432 91.7068C56.7584 92.4219 57.6695 92.909 58.6615 93.1063C59.6534 93.3036 60.6816 93.2023 61.616 92.8153C62.5504 92.4282 63.349 91.7728 63.9109 90.9319C64.4728 90.091 64.7727 89.1023 64.7727 88.0909C64.7727 86.7347 64.234 85.434 63.275 84.475C62.316 83.516 61.0153 82.9773 59.6591 82.9773ZM23.8636 77.8636C22.5074 77.8636 21.2067 78.4024 20.2477 79.3614C19.2888 80.3204 18.75 81.621 18.75 82.9773V93.2045C18.75 94.5608 19.2888 95.8614 20.2477 96.8204C21.2067 97.7794 22.5074 98.3182 23.8636 98.3182C25.2199 98.3182 26.5205 97.7794 27.4795 96.8204C28.4385 95.8614 28.9773 94.5608 28.9773 93.2045V82.9773C28.9773 81.621 28.4385 80.3204 27.4795 79.3614C26.5205 78.4024 25.2199 77.8636 23.8636 77.8636ZM126.136 77.8636C124.78 77.8636 123.479 78.4024 122.52 79.3614C121.561 80.3204 121.023 81.621 121.023 82.9773V93.2045C121.023 94.5608 121.561 95.8614 122.52 96.8204C123.479 97.7794 124.78 98.3182 126.136 98.3182C127.493 98.3182 128.793 97.7794 129.752 96.8204C130.711 95.8614 131.25 94.5608 131.25 93.2045V82.9773C131.25 81.621 130.711 80.3204 129.752 79.3614C128.793 78.4024 127.493 77.8636 126.136 77.8636ZM100.568 42.0682H80.1136V35.5227C81.6594 34.6303 82.9446 33.349 83.8417 31.806C84.7388 30.263 85.2165 28.5121 85.2273 26.7273C85.2273 24.0148 84.1498 21.4135 82.2318 19.4955C80.3138 17.5775 77.7124 16.5 75 16.5C72.2876 16.5 69.6862 17.5775 67.7682 19.4955C65.8502 21.4135 64.7727 24.0148 64.7727 26.7273C64.7835 28.5121 65.2612 30.263 66.1583 31.806C67.0554 33.349 68.3406 34.6303 69.8864 35.5227V42.0682H49.4318C45.3632 42.0682 41.4611 43.6845 38.5842 46.5614C35.7072 49.4384 34.0909 53.3404 34.0909 57.4091V103.432C34.0909 107.5 35.7072 111.402 38.5842 114.279C41.4611 117.156 45.3632 118.773 49.4318 118.773H100.568C104.637 118.773 108.539 117.156 111.416 114.279C114.293 111.402 115.909 107.5 115.909 103.432V57.4091C115.909 53.3404 114.293 49.4384 111.416 46.5614C108.539 43.6845 104.637 42.0682 100.568 42.0682ZM83.7955 52.2955L81.2386 62.5227H68.7614L66.2045 52.2955H83.7955ZM105.682 103.432C105.682 104.788 105.143 106.089 104.184 107.048C103.225 108.007 101.924 108.545 100.568 108.545H49.4318C48.0756 108.545 46.7749 108.007 45.8159 107.048C44.8569 106.089 44.3182 104.788 44.3182 103.432V57.4091C44.3182 56.0529 44.8569 54.7522 45.8159 53.7932C46.7749 52.8342 48.0756 52.2955 49.4318 52.2955H55.6705L59.6591 68.8636C59.9391 69.9982 60.5992 71.0027 61.5296 71.7098C62.46 72.4169 63.6046 72.784 64.7727 72.75H85.2273C86.3954 72.784 87.54 72.4169 88.4704 71.7098C89.4008 71.0027 90.0609 69.9982 90.3409 68.8636L94.3295 52.2955H100.568C101.924 52.2955 103.225 52.8342 104.184 53.7932C105.143 54.7522 105.682 56.0529 105.682 57.4091V103.432ZM90.3409 82.9773C89.3295 82.9773 88.3409 83.2772 87.4999 83.8391C86.659 84.401 86.0036 85.1996 85.6165 86.134C85.2295 87.0684 85.1282 88.0966 85.3255 89.0885C85.5228 90.0805 86.0099 90.9916 86.725 91.7068C87.4402 92.4219 88.3513 92.909 89.3433 93.1063C90.3352 93.3036 91.3634 93.2023 92.2978 92.8153C93.2322 92.4282 94.0309 91.7728 94.5927 90.9319C95.1546 90.091 95.4545 89.1023 95.4545 88.0909C95.4545 86.7347 94.9158 85.434 93.9568 84.475C92.9978 83.516 91.6971 82.9773 90.3409 82.9773Z" fill="#B999FF"/>
</g>
<defs>
<linearGradient id="paint0_linear_152_64" x1="75" y1="0" x2="75" y2="150" gradientUnits="userSpaceOnUse">
<stop stop-color="white"/>
<stop offset="1" stop-color="white" stop-opacity="0"/>
</linearGradient>
<clipPath id="clip0_152_64">
<rect x="18.75" y="11.25" width="112.5" height="112.5" rx="30" fill="white"/>
</clipPath>
</defs>
</svg>
