<svg width="150" height="150" viewBox="0 0 150 150" fill="none" xmlns="http://www.w3.org/2000/svg">
<rect width="150" height="150" rx="30" fill="url(#paint0_linear_152_67)" fill-opacity="0.3"/>
<path d="M107.344 61.9218C104.476 55.3397 99.5294 49.8796 93.2612 46.3788C86.9931 42.878 79.7496 41.5297 72.6416 42.5405C65.5336 43.5514 58.9533 46.8657 53.9096 51.9752C48.8659 57.0848 45.6373 63.7075 44.7187 70.8281C40.2496 71.8983 36.3292 74.5726 33.7019 78.343C31.0746 82.1134 29.9235 86.7174 30.4672 91.2807C31.0108 95.8439 33.2114 100.049 36.6509 103.096C40.0905 106.144 44.5295 107.822 49.125 107.812H100.687C106.309 107.797 111.739 105.761 115.985 102.076C120.231 98.3915 123.011 93.3031 123.818 87.7394C124.625 82.1756 123.405 76.5071 120.381 71.7677C117.357 67.0284 112.73 63.534 107.344 61.9218ZM100.687 98.4375H49.125C46.6386 98.4375 44.254 97.4497 42.4959 95.6916C40.7377 93.9334 39.75 91.5489 39.75 89.0625C39.75 86.5761 40.7377 84.1915 42.4959 82.4333C44.254 80.6752 46.6386 79.6875 49.125 79.6875C50.3682 79.6875 51.5605 79.1936 52.4396 78.3145C53.3186 77.4354 53.8125 76.2432 53.8125 75C53.8245 69.4559 55.8013 64.0957 59.3919 59.8714C62.9824 55.6472 67.9542 52.8325 73.4238 51.9275C78.8935 51.0224 84.5069 52.0856 89.2667 54.9281C94.0266 57.7706 97.6247 62.2084 99.4219 67.4531C99.6968 68.2498 100.182 68.9577 100.825 69.5022C101.468 70.0466 102.247 70.4075 103.078 70.5468C106.514 71.1808 109.591 73.0712 111.709 75.8497C113.828 78.6281 114.836 82.0957 114.538 85.5768C114.239 89.058 112.656 92.3034 110.095 94.6808C107.535 97.0583 104.181 98.3974 100.687 98.4375Z" fill="#B999FF"/>
<defs>
<linearGradient id="paint0_linear_152_67" x1="75" y1="0" x2="75" y2="150" gradientUnits="userSpaceOnUse">
<stop stop-color="white"/>
<stop offset="1" stop-color="white" stop-opacity="0"/>
</linearGradient>
</defs>
</svg>
