<svg width="51" height="51" viewBox="0 0 51 51" fill="none" xmlns="http://www.w3.org/2000/svg">
<path d="M25.6429 4.22608C22.8946 4.12628 20.1544 4.58346 17.5874 5.5701C15.0203 6.55674 12.6793 8.05246 10.7053 9.96727C8.73127 11.8821 7.16496 14.1764 6.10061 16.7123C5.03626 19.2481 4.49586 21.973 4.51192 24.7231C4.47651 27.5783 5.04996 30.4082 6.19406 33.0244C7.33817 35.6405 9.02667 37.9828 11.147 39.8952C11.3154 40.0451 11.4525 40.2268 11.5504 40.4299C11.6483 40.633 11.7051 40.8534 11.7176 41.0785V44.8398C11.7292 45.1171 11.808 45.3874 11.9473 45.6274C12.0866 45.8674 12.2821 46.07 12.5171 46.2176C12.7521 46.3653 13.0194 46.4536 13.2961 46.4749C13.5728 46.4963 13.8506 46.45 14.1054 46.3401L18.3316 44.5017C18.6925 44.3654 19.0907 44.3654 19.4515 44.5017C21.4493 45.041 23.5102 45.311 25.5795 45.3047C31.0269 45.3131 36.2545 43.1572 40.1123 39.3113C43.9701 35.4654 46.1421 30.2444 46.1505 24.7971C46.1589 19.3497 44.003 14.1221 40.1571 10.2643C36.3112 6.4065 31.0903 4.23448 25.6429 4.22608ZM38.3215 19.9898L32.1301 29.8368C31.8966 30.2076 31.5888 30.5258 31.226 30.7716C30.8633 31.0174 30.4536 31.1853 30.0227 31.2647C29.5918 31.3441 29.1491 31.3334 28.7226 31.2331C28.2961 31.1328 27.895 30.9452 27.5447 30.6821L22.6 26.9841C22.3806 26.8195 22.1137 26.7306 21.8393 26.7306C21.565 26.7306 21.2981 26.8195 21.0786 26.9841L14.4012 32.0556C14.2153 32.199 13.9845 32.2719 13.7499 32.2613C13.5153 32.2507 13.292 32.1573 13.1197 31.9977C12.9475 31.8381 12.8373 31.6226 12.8089 31.3895C12.7804 31.1563 12.8355 30.9207 12.9643 30.7243L19.1557 20.8773C19.3892 20.5065 19.697 20.1883 20.0598 19.9425C20.4225 19.6967 20.8322 19.5288 21.2631 19.4494C21.694 19.37 22.1367 19.3807 22.5632 19.481C22.9897 19.5813 23.3908 19.7689 23.7411 20.032L28.6858 23.73C28.9052 23.8946 29.1721 23.9835 29.4465 23.9835C29.7208 23.9835 29.9877 23.8946 30.2072 23.73L36.8846 18.6585C37.0705 18.5151 37.3013 18.4422 37.5359 18.4528C37.7705 18.4634 37.9938 18.5568 38.1661 18.7164C38.3383 18.876 38.4485 19.0915 38.4769 19.3247C38.5054 19.5578 38.4503 19.7934 38.3215 19.9898Z" fill="#2D2D2D"/>
</svg>
