<svg width="51" height="51" viewBox="0 0 51 51" fill="none" xmlns="http://www.w3.org/2000/svg">
<path d="M46.3613 27.185L44.1088 20.254L39.6417 6.49777C39.524 6.14411 39.2972 5.83693 38.9937 5.62047C38.6903 5.40402 38.326 5.28946 37.9533 5.29331C37.5822 5.29165 37.2202 5.40894 36.9206 5.62797C36.6209 5.84701 36.3993 6.15628 36.2882 6.51045L32.0472 19.5651H18.6671L14.4198 6.50834C14.3083 6.15456 14.0865 5.84576 13.7869 5.62712C13.4873 5.40849 13.1255 5.29151 12.7546 5.29331H12.742C12.3695 5.29348 12.0066 5.41095 11.7046 5.62905C11.4027 5.84715 11.1771 6.15479 11.0599 6.50834L6.60764 20.2519L6.60341 20.2646L6.60552 20.254L4.34662 27.185C4.18008 27.6934 4.17937 28.2417 4.34457 28.7506C4.50978 29.2595 4.83238 29.7028 5.26582 30.0165L24.7676 44.1848L24.7761 44.1911L24.7824 44.1933L24.7845 44.1954C24.8151 44.2169 24.8468 44.2366 24.8796 44.2545L24.8923 44.263L24.9007 44.2672L24.9071 44.2693H24.9113L24.9219 44.2757L24.9747 44.2968L25.0233 44.3179H25.0254L25.0338 44.3222L25.0444 44.3264H25.0486L25.0613 44.3306H25.0677C25.0909 44.3391 25.1141 44.3433 25.1395 44.3496L25.167 44.356H25.1712L25.1818 44.3602L25.1966 44.3623H25.2113C25.2575 44.3698 25.3041 44.3741 25.3508 44.375H25.3529C25.4003 44.3749 25.4476 44.3713 25.4945 44.3644H25.5093L25.5241 44.3602L25.5325 44.3581H25.5368L25.5664 44.3496L25.6382 44.3327H25.6424L25.6551 44.3264H25.6593L25.6699 44.3222L25.6783 44.32L25.7333 44.2968L25.7819 44.2757L25.7925 44.2714H25.7967L25.803 44.2672L25.8115 44.263L25.8263 44.2545C25.8583 44.2373 25.8893 44.2182 25.9192 44.1975L25.9277 44.1911L25.9383 44.1848L45.4421 30.0144C45.8748 29.7005 46.1967 29.2575 46.3615 28.749C46.5263 28.2406 46.5255 27.6929 46.3592 27.185H46.3613ZM37.966 7.78676L41.7907 19.5651H34.1413L37.966 7.78676ZM12.742 7.78676L16.573 19.5673H8.92359L12.742 7.78676ZM6.43648 28.4042C6.3447 28.3372 6.27647 28.2428 6.24155 28.1346C6.20663 28.0265 6.20682 27.91 6.24207 27.802L7.91987 22.6503L20.2223 38.4224L6.43648 28.4042ZM9.59344 21.5578H17.2217L22.6587 38.3083L9.59344 21.5578ZM24.7338 44.1595L24.7211 44.1489L24.6979 44.1278L24.6556 44.0897L24.6598 44.0918L24.6641 44.0961C24.6928 44.1239 24.7231 44.15 24.7549 44.1742L24.7591 44.1785L24.7338 44.1595ZM25.3529 40.1572L22.1537 30.2997L19.3137 21.5557H31.4006L25.3529 40.1572ZM26.008 44.1299L25.9869 44.1468L25.9826 44.1489L25.9721 44.1595L25.9467 44.1785L25.9509 44.1742C25.9828 44.1508 26.0131 44.1254 26.0418 44.0982L26.0439 44.0939L26.0481 44.0897L26.008 44.1299ZM33.4947 21.5536H41.123L39.5593 23.5547L28.0492 38.3041L33.4947 21.5536ZM44.2715 28.4021L30.4878 38.4182L42.7944 22.6482L44.4659 27.7978C44.5016 27.9061 44.5021 28.023 44.4671 28.1316C44.4322 28.2402 44.3637 28.3349 44.2715 28.4021Z" fill="#2D2D2D"/>
</svg>
