<svg width="150" height="150" viewBox="0 0 150 150" fill="none" xmlns="http://www.w3.org/2000/svg">
<rect width="150" height="150" rx="30" fill="url(#paint0_linear_152_68)" fill-opacity="0.3"/>
<path d="M54.75 77.7918H41.5833C40.7103 77.7918 39.8731 78.1386 39.2558 78.7559C38.6385 79.3732 38.2917 80.2104 38.2917 81.0834V107.417C38.2917 108.29 38.6385 109.127 39.2558 109.744C39.8731 110.362 40.7103 110.708 41.5833 110.708H54.75C55.623 110.708 56.4602 110.362 57.0776 109.744C57.6949 109.127 58.0417 108.29 58.0417 107.417V81.0834C58.0417 80.2104 57.6949 79.3732 57.0776 78.7559C56.4602 78.1386 55.623 77.7918 54.75 77.7918ZM51.4583 104.125H44.875V84.3751H51.4583V104.125ZM107.417 64.6251H94.25C93.377 64.6251 92.5398 64.9719 91.9224 65.5892C91.3051 66.2065 90.9583 67.0438 90.9583 67.9168V107.417C90.9583 108.29 91.3051 109.127 91.9224 109.744C92.5398 110.362 93.377 110.708 94.25 110.708H107.417C108.29 110.708 109.127 110.362 109.744 109.744C110.362 109.127 110.708 108.29 110.708 107.417V67.9168C110.708 67.0438 110.362 66.2065 109.744 65.5892C109.127 64.9719 108.29 64.6251 107.417 64.6251ZM104.125 104.125H97.5417V71.2084H104.125V104.125ZM81.0833 38.2917H67.9167C67.0437 38.2917 66.2064 38.6385 65.5891 39.2559C64.9718 39.8732 64.625 40.7104 64.625 41.5834V107.417C64.625 108.29 64.9718 109.127 65.5891 109.744C66.2064 110.362 67.0437 110.708 67.9167 110.708H81.0833C81.9563 110.708 82.7936 110.362 83.4109 109.744C84.0282 109.127 84.375 108.29 84.375 107.417V41.5834C84.375 40.7104 84.0282 39.8732 83.4109 39.2559C82.7936 38.6385 81.9563 38.2917 81.0833 38.2917ZM77.7917 104.125H71.2083V44.8751H77.7917V104.125Z" fill="#B999FF"/>
<defs>
<linearGradient id="paint0_linear_152_68" x1="75" y1="0" x2="75" y2="150" gradientUnits="userSpaceOnUse">
<stop stop-color="white"/>
<stop offset="1" stop-color="white" stop-opacity="0"/>
</linearGradient>
</defs>
</svg>
