<svg width="51" height="51" viewBox="0 0 51 51" fill="none" xmlns="http://www.w3.org/2000/svg">
<path d="M46.631 12.2561C45.0426 12.9452 43.3629 13.4007 41.644 13.6085C43.4574 12.5251 44.8164 10.8208 45.4688 8.81174C43.7646 9.82616 41.8992 10.5409 39.9536 10.9248C38.6531 9.51449 36.9212 8.5757 35.0296 8.25568C33.1381 7.93566 31.1938 8.25252 29.5017 9.15657C27.8097 10.0606 26.4655 11.5007 25.6801 13.251C24.8947 15.0013 24.7124 16.9628 25.1619 18.8278C21.7163 18.6536 18.346 17.7564 15.2698 16.1946C12.1935 14.6328 9.48027 12.4414 7.30622 9.76263C6.54369 11.0942 6.143 12.6023 6.14402 14.1367C6.14132 15.5618 6.49103 16.9654 7.16201 18.2226C7.833 19.4797 8.80445 20.5515 9.98986 21.3424C8.61207 21.3049 7.26372 20.9352 6.0595 20.2647V20.3704C6.06982 22.367 6.76948 24.2988 8.04013 25.839C9.31078 27.3792 11.0744 28.4332 13.0327 28.8228C12.2789 29.0522 11.4962 29.1732 10.7083 29.182C10.1629 29.1756 9.61884 29.1262 9.08122 29.0341C9.63889 30.7516 10.7181 32.2527 12.1686 33.3283C13.6192 34.4038 15.3689 35.0005 17.1744 35.0353C14.1256 37.4342 10.3615 38.7435 6.48212 38.7544C5.77578 38.7567 5.07001 38.7143 4.36902 38.6276C8.32987 41.185 12.9457 42.5426 17.6604 42.5368C20.9139 42.5706 24.1416 41.9557 27.1548 40.7282C30.168 39.5006 32.9064 37.6849 35.2101 35.3871C37.5138 33.0894 39.3365 30.3556 40.5718 27.3455C41.8071 24.3355 42.4302 21.1094 42.4048 17.8558C42.4048 17.4966 42.4048 17.1162 42.4048 16.7359C44.0629 15.4993 45.493 13.9834 46.631 12.2561Z" fill="#2D2D2D"/>
</svg>
