<svg width="731" height="519" viewBox="0 0 731 519" fill="none" xmlns="http://www.w3.org/2000/svg">
<g filter="url(#filter0_d_21_100)">
<rect x="5.74673" y="86.2406" width="293" height="450" rx="30" transform="rotate(-16.7065 5.74673 86.2406)" fill="white"/>
<rect x="9.48251" y="88.2516" width="287" height="444" rx="27" transform="rotate(-16.7065 9.48251 88.2516)" stroke="white" stroke-width="6"/>
</g>
<path d="M104.036 223.791C90.2945 206.337 85.1294 195.776 84.6641 174.27C75.046 200.512 75.6996 214.691 85.969 239.174C108.661 264.562 124.61 268.989 155.649 269.01L154.826 269.108C144.878 270.29 139.052 270.982 129.483 271.963C120.095 275.437 115.957 278.923 110.599 287.907C123.041 297.369 129.942 296.041 142.27 295.318C150.79 288.607 155.401 285.318 162.458 282.777C175.847 314.806 188.826 322.175 207.561 343.863C208.288 357.254 211.086 363.143 219.239 371.504C239.629 377.016 248.234 372.028 262.02 358.663C272.222 345.735 271.346 337.905 264.853 323.505C271.001 294.856 272.615 278.93 268.054 251.083C279.657 255.682 284.807 255.039 292.458 250.241C305.62 243.446 308.224 237.737 312.357 227.352C304.421 227.748 298.93 226.787 286.99 222.634C279.427 228.289 274.942 231.426 263.701 236.58C307.023 187.189 318.224 160.474 273.239 117.672C293.368 172.571 280.417 187.61 243.865 205.696C221.317 207.815 213.243 212.745 201.14 223.42C181.816 220.772 171.995 222.795 156.105 232.036C133.035 236.948 121.847 234.509 104.036 223.791Z" stroke="#7DDEF5" stroke-width="8"/>
<path d="M140.699 80.4175C138.31 77.382 137.411 75.5453 137.33 71.8051C135.658 76.369 135.771 78.8348 137.557 83.0927C141.504 87.5081 144.277 88.2781 149.676 88.2817L149.533 88.2987C147.802 88.5042 146.789 88.6246 145.125 88.7951C143.492 89.3993 142.773 90.0056 141.841 91.5681C144.005 93.2137 145.205 92.9827 147.349 92.857C148.831 91.6898 149.632 91.1179 150.86 90.6759C153.188 96.2461 155.446 97.5278 158.704 101.3C158.83 103.628 159.317 104.653 160.735 106.107C164.281 107.065 165.777 106.198 168.175 103.874C169.949 101.625 169.797 100.263 168.668 97.7591C169.737 92.7765 170.017 90.0069 169.224 85.164C171.242 85.9638 172.138 85.852 173.468 85.0175C175.757 83.8357 176.21 82.8429 176.929 81.0367C175.549 81.1056 174.594 80.9386 172.517 80.2162C171.202 81.1997 170.422 81.7452 168.467 82.6416C176.001 74.0519 177.949 69.4058 170.126 61.9619C173.627 71.5096 171.374 74.1251 165.017 77.2705C161.096 77.6391 159.692 78.4965 157.587 80.353C154.226 79.8923 152.518 80.2442 149.755 81.8514C145.743 82.7057 143.797 82.2815 140.699 80.4175Z" stroke="#7DDEF5" stroke-width="2"/>
<path d="M272.736 270.461C275.019 278.068 275.756 285.392 274.946 292.433C274.117 299.411 271.998 305.825 268.588 311.674C265.221 317.443 260.66 322.516 254.905 326.894C249.15 331.273 242.5 334.594 234.955 336.859C228.782 338.712 222.948 339.545 217.454 339.358C212.023 339.153 206.894 338.144 202.067 336.33C197.302 334.497 192.9 331.944 188.858 328.671C184.817 325.397 181.141 321.641 177.829 317.401C174.579 313.142 171.713 308.462 169.231 303.362C166.748 298.261 164.684 292.967 163.037 287.48C161.015 280.745 159.549 274.048 158.638 267.389C157.708 260.666 157.43 254.191 157.803 247.961C158.239 241.713 159.398 235.723 161.28 229.992C163.163 224.261 165.875 219.029 169.416 214.295C172.958 209.562 177.378 205.38 182.678 201.75C188.022 198.039 194.373 195.079 201.731 192.871C204.412 192.066 207.193 191.367 210.074 190.775C212.936 190.12 215.855 189.651 218.829 189.371C221.803 189.09 224.741 189.024 227.64 189.173C230.602 189.304 233.483 189.73 236.283 190.453L244.538 228.148C239.456 227.294 234.158 227.083 228.646 227.514C223.177 227.864 218.011 228.769 213.147 230.229C209.281 231.389 206.123 232.983 203.672 235.009C201.203 236.974 199.32 239.307 198.023 242.007C196.727 244.707 195.966 247.722 195.742 251.052C195.562 254.301 195.859 257.781 196.632 261.491C200.037 257.886 203.871 254.696 208.136 251.921C212.401 249.145 216.965 247.027 221.829 245.568C227.317 243.921 232.745 243.209 238.114 243.433C243.483 243.657 248.422 244.825 252.931 246.939C257.502 249.033 261.499 252.048 264.923 255.982C268.41 259.898 271.014 264.724 272.736 270.461ZM238.035 283.935C237.455 282.002 236.504 280.418 235.181 279.183C233.903 277.868 232.419 276.886 230.729 276.237C229.082 275.508 227.302 275.125 225.387 275.088C223.454 274.988 221.615 275.2 219.869 275.724C218.123 276.248 216.502 277.075 215.005 278.204C213.49 279.27 212.215 280.571 211.18 282.105C210.189 283.558 209.49 285.195 209.085 287.016C208.724 288.756 208.833 290.592 209.413 292.525C209.975 294.396 210.895 295.989 212.173 297.305C213.496 298.539 214.97 299.49 216.598 300.157C218.288 300.805 220.068 301.188 221.939 301.307C223.791 301.363 225.59 301.129 227.336 300.604C229.082 300.08 230.744 299.276 232.321 298.191C233.88 297.043 235.155 295.743 236.147 294.29C237.2 292.818 237.908 291.212 238.269 289.472C238.674 287.651 238.596 285.805 238.035 283.935Z" fill="white"/>
<path d="M274.946 292.433L282.89 293.376L282.892 293.361L282.894 293.347L274.946 292.433ZM268.588 311.674L275.497 315.707L275.499 315.703L268.588 311.674ZM217.454 339.358L217.152 347.353L217.168 347.353L217.183 347.354L217.454 339.358ZM202.067 336.33L199.195 343.796L199.224 343.807L199.252 343.818L202.067 336.33ZM177.829 317.401L171.469 322.254L171.496 322.29L171.524 322.325L177.829 317.401ZM169.231 303.362L162.038 306.863L169.231 303.362ZM158.638 267.389L166.564 266.304L166.562 266.292L158.638 267.389ZM157.803 247.961L149.822 247.404L149.82 247.443L149.817 247.482L157.803 247.961ZM161.28 229.992L153.68 227.495L153.68 227.495L161.28 229.992ZM169.416 214.295L163.01 209.503L169.416 214.295ZM182.678 201.75L187.199 208.35L187.22 208.336L187.241 208.321L182.678 201.75ZM210.074 190.775L211.686 198.611L211.773 198.593L211.859 198.573L210.074 190.775ZM227.64 189.173L227.229 197.162L227.258 197.164L227.288 197.165L227.64 189.173ZM236.283 190.453L244.098 188.742L243.046 183.937L238.283 182.707L236.283 190.453ZM244.538 228.148L243.213 236.037L254.885 237.998L252.353 226.437L244.538 228.148ZM228.646 227.514L229.157 235.498L229.213 235.494L229.269 235.49L228.646 227.514ZM203.672 235.009L208.653 241.27L208.713 241.222L208.771 241.174L203.672 235.009ZM198.023 242.007L205.235 245.47L198.023 242.007ZM195.742 251.052L187.76 250.515L187.757 250.562L187.755 250.609L195.742 251.052ZM196.632 261.491L188.801 263.124L191.929 278.123L202.448 266.984L196.632 261.491ZM252.931 246.939L249.535 254.182L249.567 254.197L249.598 254.211L252.931 246.939ZM264.923 255.982L258.889 261.234L258.918 261.268L258.948 261.302L264.923 255.982ZM235.181 279.183L229.444 284.759L229.58 284.898L229.722 285.031L235.181 279.183ZM230.729 276.237L227.488 283.552L227.674 283.634L227.863 283.707L230.729 276.237ZM225.387 275.088L224.976 283.077L225.104 283.084L225.232 283.086L225.387 275.088ZM215.005 278.204L219.61 284.746L219.718 284.67L219.823 284.59L215.005 278.204ZM211.18 282.105L217.789 286.613L217.8 286.596L217.812 286.579L211.18 282.105ZM209.085 287.016L201.276 285.278L201.264 285.333L201.253 285.388L209.085 287.016ZM212.173 297.305L206.436 302.88L206.572 303.019L206.714 303.152L212.173 297.305ZM216.598 300.157L213.564 307.559L213.648 307.594L213.733 307.626L216.598 300.157ZM221.939 301.307L221.435 309.291L221.566 309.299L221.698 309.303L221.939 301.307ZM232.321 298.191L236.856 304.782L236.961 304.709L237.064 304.633L232.321 298.191ZM236.147 294.29L229.642 289.633L229.589 289.706L229.538 289.781L236.147 294.29ZM238.269 289.472L230.46 287.735L230.448 287.79L230.437 287.845L238.269 289.472ZM265.073 272.761C267.082 279.453 267.67 285.681 266.998 291.519L282.894 293.347C283.842 285.104 282.956 276.684 280.398 268.161L265.073 272.761ZM267.002 291.489C266.297 297.421 264.514 302.778 261.676 307.645L275.499 315.703C279.482 308.871 281.937 301.4 282.89 293.376L267.002 291.489ZM261.678 307.642C258.883 312.432 255.051 316.731 250.061 320.528L259.749 333.261C266.269 328.301 271.559 322.454 275.497 315.707L261.678 307.642ZM250.061 320.528C245.135 324.275 239.364 327.183 232.655 329.196L237.255 344.521C245.636 342.005 253.165 338.27 259.749 333.261L250.061 320.528ZM232.655 329.196C227.175 330.841 222.215 331.515 217.725 331.363L217.183 347.354C223.681 347.574 230.388 346.582 237.255 344.521L232.655 329.196ZM217.756 331.364C213.137 331.19 208.86 330.337 204.881 328.841L199.252 343.818C204.927 345.951 210.908 347.117 217.152 347.353L217.756 331.364ZM204.939 328.863C200.971 327.337 197.296 325.21 193.894 322.454L183.823 334.887C188.503 338.678 193.633 341.657 199.195 343.796L204.939 328.863ZM193.894 322.454C190.339 319.575 187.085 316.255 184.134 312.476L171.524 322.325C175.196 327.026 179.295 331.22 183.823 334.887L193.894 322.454ZM184.189 312.548C181.28 308.735 178.688 304.512 176.424 299.861L162.038 306.863C164.739 312.413 167.879 317.549 171.469 322.254L184.189 312.548ZM176.424 299.861C174.132 295.151 172.223 290.259 170.699 285.18L155.374 289.78C157.144 295.675 159.365 301.371 162.038 306.863L176.424 299.861ZM170.699 285.18C168.792 278.825 167.417 272.534 166.564 266.304L150.712 268.473C151.682 275.563 153.239 282.666 155.374 289.78L170.699 285.18ZM166.562 266.292C165.698 260.047 165.449 254.1 165.789 248.439L149.817 247.482C149.41 254.281 149.717 261.286 150.713 268.485L166.562 266.292ZM165.784 248.517C166.175 242.904 167.213 237.567 168.881 232.488L153.68 227.495C151.583 233.878 150.302 240.521 149.822 247.404L165.784 248.517ZM168.881 232.488C170.498 227.565 172.811 223.111 175.822 219.088L163.01 209.503C158.938 214.946 155.828 220.956 153.68 227.495L168.881 232.488ZM175.822 219.088C178.794 215.114 182.559 211.528 187.199 208.35L178.158 195.15C172.197 199.232 167.121 204.009 163.01 209.503L175.822 219.088ZM187.241 208.321C191.781 205.169 197.338 202.542 204.03 200.533L199.431 185.209C191.408 187.617 184.263 190.91 178.115 195.179L187.241 208.321ZM204.03 200.533C206.474 199.8 209.025 199.158 211.686 198.611L208.462 182.939C205.361 183.577 202.35 184.333 199.431 185.209L204.03 200.533ZM211.859 198.573C214.375 197.997 216.948 197.584 219.581 197.335L218.077 181.406C214.761 181.719 211.497 182.242 208.289 182.976L211.859 198.573ZM219.581 197.335C222.18 197.09 224.728 197.034 227.229 197.162L228.052 181.184C224.753 181.014 221.427 181.089 218.077 181.406L219.581 197.335ZM227.288 197.165C229.708 197.272 232.036 197.619 234.283 198.199L238.283 182.707C234.931 181.842 231.497 181.335 227.993 181.181L227.288 197.165ZM228.468 192.165L236.723 229.859L252.353 226.437L244.098 188.742L228.468 192.165ZM245.863 220.259C240.092 219.289 234.138 219.06 228.022 219.538L229.269 235.49C234.178 235.106 238.819 235.299 243.213 236.037L245.863 220.259ZM228.135 219.53C222.107 219.916 216.337 220.918 210.847 222.566L215.447 237.891C219.684 236.619 224.247 235.812 229.157 235.498L228.135 219.53ZM210.847 222.566C206.223 223.954 202.037 225.98 198.573 228.845L208.771 241.174C210.209 239.985 212.339 238.823 215.447 237.891L210.847 222.566ZM198.691 228.749C195.329 231.425 192.659 234.697 190.812 238.544L205.235 245.47C205.981 243.916 207.078 242.523 208.653 241.27L198.691 228.749ZM190.812 238.544C189.027 242.261 188.045 246.285 187.76 250.515L203.724 251.589C203.888 249.159 204.426 247.154 205.235 245.47L190.812 238.544ZM187.755 250.609C187.53 254.657 187.907 258.841 188.801 263.124L204.464 259.858C203.81 256.721 203.594 253.945 203.73 251.496L187.755 250.609ZM202.448 266.984C205.407 263.851 208.751 261.065 212.5 258.626L203.773 245.215C198.991 248.327 194.666 251.921 190.816 255.998L202.448 266.984ZM212.5 258.626C216.127 256.265 219.997 254.47 224.129 253.23L219.53 237.905C213.934 239.585 208.675 242.025 203.773 245.215L212.5 258.626ZM224.129 253.23C228.82 251.822 233.359 251.242 237.781 251.426L238.447 235.44C232.131 235.177 225.813 236.019 219.53 237.905L224.129 253.23ZM237.781 251.426C242.174 251.609 246.061 252.554 249.535 254.182L256.326 239.695C250.782 237.096 244.792 235.704 238.447 235.44L237.781 251.426ZM249.598 254.211C253.096 255.814 256.183 258.125 258.889 261.234L270.958 250.73C266.816 245.971 261.907 242.252 256.263 239.666L249.598 254.211ZM258.948 261.302C261.555 264.23 263.639 267.982 265.073 272.761L280.398 268.161C278.388 261.466 275.264 255.566 270.898 250.662L258.948 261.302ZM245.697 281.635C244.758 278.506 243.115 275.646 240.641 273.336L229.722 285.031C229.892 285.19 230.151 285.497 230.373 286.234L245.697 281.635ZM240.918 273.608C238.843 271.472 236.382 269.838 233.594 268.768L227.863 283.707C228.455 283.934 228.963 284.264 229.444 284.759L240.918 273.608ZM233.969 268.923C231.289 267.736 228.452 267.146 225.543 267.089L225.232 283.086C226.151 283.104 226.875 283.28 227.488 283.552L233.969 268.923ZM225.799 267.098C223.007 266.954 220.246 267.259 217.569 268.062L222.169 283.387C222.983 283.142 223.902 283.022 224.976 283.077L225.799 267.098ZM217.569 268.062C214.889 268.866 212.419 270.134 210.187 271.817L219.823 284.59C220.584 284.016 221.357 283.63 222.169 283.387L217.569 268.062ZM210.4 271.662C208.09 273.288 206.128 275.289 204.548 277.631L217.812 286.579C218.302 285.853 218.89 285.253 219.61 284.746L210.4 271.662ZM204.571 277.596C202.974 279.938 201.888 282.527 201.276 285.278L216.894 288.753C217.092 287.863 217.404 287.177 217.789 286.613L204.571 277.596ZM201.253 285.388C200.586 288.599 200.841 291.792 201.751 294.825L217.076 290.225C216.825 289.392 216.862 288.912 216.918 288.643L201.253 285.388ZM201.751 294.825C202.657 297.844 204.205 300.584 206.436 302.88L217.91 291.729C217.585 291.394 217.292 290.947 217.076 290.225L201.751 294.825ZM206.714 303.152C208.723 305.028 211.015 306.515 213.564 307.559L219.632 292.754C218.926 292.465 218.268 292.05 217.633 291.457L206.714 303.152ZM213.733 307.626C216.206 308.575 218.784 309.123 221.435 309.291L222.444 293.323C221.352 293.254 220.37 293.036 219.463 292.688L213.733 307.626ZM221.698 309.303C224.395 309.384 227.053 309.042 229.636 308.267L225.036 292.942C224.128 293.215 223.187 293.341 222.18 293.31L221.698 309.303ZM229.636 308.267C232.217 307.492 234.628 306.314 236.856 304.782L227.787 291.6C226.86 292.238 225.947 292.669 225.036 292.942L229.636 308.267ZM237.064 304.633C239.277 303.004 241.207 301.067 242.755 298.798L229.538 289.781C229.104 290.418 228.484 291.082 227.579 291.748L237.064 304.633ZM242.652 298.946C244.342 296.586 245.51 293.951 246.102 291.099L230.437 287.845C230.306 288.473 230.059 289.05 229.642 289.633L242.652 298.946ZM246.078 291.209C246.795 287.989 246.633 284.753 245.697 281.635L230.373 286.234C230.56 286.858 230.554 287.314 230.46 287.735L246.078 291.209Z" fill="#ABBDF3"/>
<path d="M72.715 114.741C73.2858 116.643 73.47 118.474 73.2676 120.234C73.0604 121.979 72.5306 123.582 71.678 125.044C70.8364 126.487 69.6962 127.755 68.2574 128.85C66.8186 129.944 65.1561 130.774 63.2698 131.341C61.7265 131.804 60.2681 132.012 58.8946 131.966C57.5368 131.914 56.2545 131.662 55.0478 131.208C53.8567 130.75 52.756 130.112 51.7457 129.294C50.7354 128.475 49.8162 127.536 48.9883 126.476C48.1759 125.411 47.4595 124.242 46.8388 122.966C46.2182 121.691 45.702 120.368 45.2903 118.996C44.785 117.312 44.4184 115.638 44.1906 113.973C43.9581 112.293 43.8885 110.674 43.9818 109.116C44.0908 107.554 44.3806 106.057 44.8512 104.624C45.3218 103.191 45.9998 101.883 46.8851 100.7C47.7705 99.5164 48.8756 98.471 50.2006 97.5635C51.5366 96.6357 53.1243 95.8958 54.9638 95.3437C55.6341 95.1425 56.3294 94.9678 57.0496 94.8196C57.7651 94.6558 58.4947 94.5388 59.2383 94.4686C59.982 94.3983 60.7162 94.3819 61.4411 94.4192C62.1817 94.4518 62.9019 94.5585 63.6019 94.7393L65.6656 104.163C64.395 103.95 63.0707 103.897 61.6926 104.004C60.3254 104.092 59.0338 104.318 57.8179 104.683C56.8513 104.973 56.0618 105.372 55.4492 105.878C54.8319 106.369 54.3611 106.953 54.037 107.628C53.7128 108.303 53.5227 109.057 53.4667 109.889C53.4216 110.701 53.4957 111.571 53.6891 112.499C54.5402 111.597 55.4989 110.8 56.5651 110.106C57.6314 109.412 58.7725 108.883 59.9884 108.518C61.3602 108.106 62.7173 107.928 64.0596 107.984C65.4018 108.04 66.6366 108.332 67.7638 108.861C68.9066 109.384 69.906 110.138 70.7619 111.122C71.6335 112.1 72.2845 113.307 72.715 114.741ZM64.0398 118.11C63.8948 117.626 63.657 117.23 63.3264 116.922C63.0068 116.593 62.6357 116.347 62.2132 116.185C61.8016 116.003 61.3566 115.907 60.878 115.898C60.3947 115.873 59.9348 115.926 59.4983 116.057C59.0618 116.188 58.6565 116.395 58.2824 116.677C57.9036 116.944 57.5848 117.269 57.3261 117.652C57.0782 118.015 56.9037 118.425 56.8024 118.88C56.7121 119.315 56.7394 119.774 56.8844 120.257C57.0248 120.725 57.2548 121.123 57.5744 121.452C57.905 121.761 58.2737 121.998 58.6806 122.165C59.1031 122.327 59.5482 122.423 60.0159 122.453C60.4789 122.467 60.9287 122.408 61.3652 122.277C61.8016 122.146 62.2171 121.945 62.6115 121.674C63.0012 121.387 63.3199 121.062 63.5678 120.698C63.8312 120.33 64.0081 119.929 64.0984 119.494C64.1997 119.039 64.1802 118.577 64.0398 118.11Z" fill="#7DDEF5"/>
<path d="M267.131 56.3898C267.701 58.2916 267.886 60.1226 267.683 61.8827C267.476 63.6272 266.946 65.2307 266.094 66.6931C265.252 68.1352 264.112 69.4036 262.673 70.4982C261.234 71.5927 259.572 72.4231 257.685 72.9892C256.142 73.4524 254.684 73.6607 253.31 73.6142C251.952 73.5629 250.67 73.3105 249.463 72.857C248.272 72.3988 247.172 71.7605 246.161 70.9422C245.151 70.1239 244.232 69.1847 243.404 68.1247C242.591 67.0601 241.875 65.8902 241.254 64.615C240.634 63.3399 240.118 62.0164 239.706 60.6445C239.201 58.9609 238.834 57.2866 238.606 55.6217C238.374 53.9412 238.304 52.3222 238.397 50.7648C238.506 49.2027 238.796 47.7053 239.267 46.2725C239.737 44.8398 240.415 43.5317 241.301 42.3483C242.186 41.165 243.291 40.1196 244.616 39.2121C245.952 38.2843 247.54 37.5444 249.379 36.9923C250.05 36.7911 250.745 36.6164 251.465 36.4682C252.181 36.3044 252.91 36.1874 253.654 36.1172C254.397 36.0469 255.132 36.0305 255.857 36.0678C256.597 36.1004 257.317 36.2071 258.017 36.3879L260.081 45.8115C258.811 45.5981 257.486 45.5453 256.108 45.653C254.741 45.7405 253.449 45.9667 252.233 46.3317C251.267 46.6218 250.477 47.0202 249.865 47.5269C249.247 48.0181 248.777 48.6012 248.453 49.2763C248.128 49.9513 247.938 50.7051 247.882 51.5376C247.837 52.3498 247.911 53.2197 248.105 54.1473C248.956 53.2461 249.914 52.4486 250.981 51.7547C252.047 51.0608 253.188 50.5314 254.404 50.1664C255.776 49.7547 257.133 49.5768 258.475 49.6328C259.817 49.6887 261.052 49.9809 262.179 50.5092C263.322 51.0329 264.322 51.7865 265.177 52.7701C266.049 53.749 266.7 54.9556 267.131 56.3898ZM258.455 59.7582C258.31 59.275 258.073 58.879 257.742 58.5704C257.422 58.2415 257.051 57.996 256.629 57.8339C256.217 57.6516 255.772 57.5558 255.293 57.5465C254.81 57.5216 254.35 57.5746 253.914 57.7056C253.477 57.8367 253.072 58.0433 252.698 58.3255C252.319 58.5921 252 58.9172 251.742 59.3007C251.494 59.664 251.319 60.0733 251.218 60.5285C251.128 60.9635 251.155 61.4226 251.3 61.9058C251.44 62.3735 251.67 62.7718 251.99 63.1007C252.321 63.4093 252.689 63.647 253.096 63.8138C253.519 63.9758 253.964 64.0717 254.431 64.1012C254.894 64.1152 255.344 64.0567 255.781 63.9257C256.217 63.7947 256.633 63.5935 257.027 63.3222C257.417 63.0353 257.735 62.7102 257.983 62.3469C258.247 61.979 258.424 61.5775 258.514 61.1426C258.615 60.6873 258.596 60.2259 258.455 59.7582Z" fill="#7DDEF5"/>
<path d="M153.144 471.585C152.573 469.683 152.389 467.852 152.591 466.092C152.798 464.348 153.328 462.744 154.181 461.282C155.022 459.84 156.162 458.571 157.601 457.477C159.04 456.382 160.703 455.552 162.589 454.986C164.132 454.523 165.59 454.314 166.964 454.361C168.322 454.412 169.604 454.664 170.811 455.118C172.002 455.576 173.103 456.214 174.113 457.033C175.123 457.851 176.042 458.79 176.87 459.85C177.683 460.915 178.399 462.085 179.02 463.36C179.64 464.635 180.157 465.959 180.568 467.33C181.074 469.014 181.44 470.688 181.668 472.353C181.9 474.034 181.97 475.653 181.877 477.21C181.768 478.772 181.478 480.27 181.007 481.702C180.537 483.135 179.859 484.443 178.973 485.627C178.088 486.81 176.983 487.855 175.658 488.763C174.322 489.691 172.734 490.431 170.895 490.983C170.224 491.184 169.529 491.359 168.809 491.507C168.093 491.671 167.364 491.788 166.62 491.858C165.877 491.928 165.142 491.945 164.417 491.907C163.677 491.875 162.957 491.768 162.257 491.587L160.193 482.163C161.464 482.377 162.788 482.43 164.166 482.322C165.533 482.234 166.825 482.008 168.041 481.643C169.007 481.353 169.797 480.955 170.409 480.448C171.027 479.957 171.497 479.374 171.822 478.699C172.146 478.024 172.336 477.27 172.392 476.437C172.437 475.625 172.363 474.755 172.169 473.828C171.318 474.729 170.36 475.526 169.293 476.22C168.227 476.914 167.086 477.444 165.87 477.809C164.498 478.22 163.141 478.398 161.799 478.342C160.457 478.286 159.222 477.994 158.095 477.466C156.952 476.942 155.953 476.188 155.097 475.205C154.225 474.226 153.574 473.019 153.144 471.585ZM161.819 468.217C161.964 468.7 162.202 469.096 162.532 469.405C162.852 469.733 163.223 469.979 163.645 470.141C164.057 470.323 164.502 470.419 164.981 470.429C165.464 470.453 165.924 470.4 166.36 470.269C166.797 470.138 167.202 469.932 167.576 469.649C167.955 469.383 168.274 469.058 168.532 468.674C168.78 468.311 168.955 467.902 169.056 467.446C169.147 467.012 169.119 466.552 168.974 466.069C168.834 465.601 168.604 465.203 168.284 464.874C167.954 464.566 167.585 464.328 167.178 464.161C166.755 463.999 166.31 463.903 165.843 463.874C165.38 463.86 164.93 463.918 164.493 464.049C164.057 464.18 163.641 464.381 163.247 464.653C162.857 464.94 162.539 465.265 162.291 465.628C162.027 465.996 161.85 466.397 161.76 466.832C161.659 467.288 161.678 467.749 161.819 468.217Z" fill="#7DDEF5"/>
<path d="M349.066 412.782C348.495 410.88 348.311 409.049 348.513 407.289C348.72 405.544 349.25 403.941 350.103 402.478C350.944 401.036 352.085 399.768 353.523 398.673C354.962 397.579 356.625 396.748 358.511 396.182C360.054 395.719 361.513 395.511 362.886 395.557C364.244 395.608 365.526 395.861 366.733 396.314C367.924 396.773 369.025 397.411 370.035 398.229C371.045 399.047 371.965 399.987 372.793 401.047C373.605 402.111 374.321 403.281 374.942 404.556C375.563 405.831 376.079 407.155 376.491 408.527C376.996 410.21 377.362 411.885 377.59 413.55C377.823 415.23 377.892 416.849 377.799 418.407C377.69 419.969 377.4 421.466 376.93 422.899C376.459 424.332 375.781 425.64 374.896 426.823C374.01 428.006 372.905 429.052 371.58 429.959C370.244 430.887 368.657 431.627 366.817 432.179C366.147 432.38 365.451 432.555 364.731 432.703C364.016 432.867 363.286 432.984 362.542 433.054C361.799 433.124 361.065 433.141 360.34 433.104C359.599 433.071 358.879 432.964 358.179 432.783L356.115 423.36C357.386 423.573 358.71 423.626 360.088 423.518C361.455 423.431 362.747 423.205 363.963 422.84C364.93 422.55 365.719 422.151 366.332 421.644C366.949 421.153 367.42 420.57 367.744 419.895C368.068 419.22 368.258 418.466 368.314 417.634C368.359 416.822 368.285 415.952 368.092 415.024C367.241 415.925 366.282 416.723 365.216 417.417C364.149 418.111 363.008 418.64 361.792 419.005C360.421 419.417 359.064 419.595 357.721 419.539C356.379 419.483 355.144 419.19 354.017 418.662C352.874 418.138 351.875 417.385 351.019 416.401C350.147 415.422 349.496 414.216 349.066 412.782ZM357.741 409.413C357.886 409.896 358.124 410.292 358.454 410.601C358.774 410.93 359.145 411.175 359.568 411.337C359.979 411.52 360.424 411.616 360.903 411.625C361.386 411.65 361.846 411.597 362.283 411.466C362.719 411.335 363.124 411.128 363.498 410.846C363.877 410.579 364.196 410.254 364.455 409.871C364.703 409.507 364.877 409.098 364.978 408.643C365.069 408.208 365.041 407.749 364.896 407.266C364.756 406.798 364.526 406.4 364.206 406.071C363.876 405.762 363.507 405.524 363.1 405.358C362.678 405.196 362.233 405.1 361.765 405.07C361.302 405.056 360.852 405.115 360.416 405.246C359.979 405.377 359.564 405.578 359.169 405.849C358.78 406.136 358.461 406.461 358.213 406.824C357.95 407.192 357.773 407.594 357.682 408.029C357.581 408.484 357.601 408.945 357.741 409.413Z" fill="#7DDEF5"/>
<g filter="url(#filter1_d_21_100)">
<rect x="203.974" y="29.7317" width="293" height="450" rx="30" transform="rotate(-5.30393 203.974 29.7317)" fill="white"/>
<rect x="207.239" y="32.4415" width="287" height="444" rx="27" transform="rotate(-5.30393 207.239 32.4415)" stroke="white" stroke-width="6"/>
</g>
<path d="M273.129 183.999C263.11 164.173 260.135 152.799 263.931 131.626C249.314 155.449 247.152 169.476 252.378 195.506C269.603 224.88 284.362 232.373 314.784 238.53L313.959 238.463C303.973 237.655 298.125 237.181 288.551 236.251C278.661 237.8 273.916 240.4 266.887 248.147C277.214 259.883 284.241 259.945 296.468 261.673C306.147 256.779 311.317 254.467 318.737 253.371C325.529 287.414 336.796 297.205 350.873 322.168C348.939 335.438 350.517 341.764 356.856 351.572C375.753 361.007 385.175 357.819 401.332 347.443C413.888 336.787 414.577 328.938 411.059 313.539C422.75 286.67 427.48 271.378 428.515 243.179C438.979 249.981 444.155 250.369 452.603 247.178C466.849 243.119 470.531 238.038 476.635 228.675C468.777 227.494 463.584 225.467 452.701 219.035C444.17 223.083 439.154 225.271 427.115 228.101C479.346 188.25 495.608 164.277 459.973 113.426C468.851 171.221 453.182 183.402 413.776 193.906C391.255 191.525 382.365 194.762 368.391 202.833C349.971 196.416 339.944 196.458 322.541 202.376C298.955 202.63 288.47 198.027 273.129 183.999Z" stroke="#7DDEF5" stroke-width="8"/>
<path d="M337.414 50.7037C335.672 47.2556 335.155 45.2776 335.815 41.5953C333.273 45.7384 332.897 48.178 333.806 52.705C336.801 57.8134 339.368 59.1165 344.659 60.1873L344.515 60.1757C342.779 60.0351 341.762 59.9528 340.097 59.7909C338.377 60.0604 337.551 60.5125 336.329 61.8599C338.125 63.9008 339.347 63.9116 341.473 64.2122C343.157 63.3611 344.056 62.959 345.346 62.7683C346.528 68.6889 348.487 70.3916 350.935 74.7331C350.599 77.041 350.873 78.1412 351.976 79.8468C355.262 81.4876 356.901 80.9332 359.71 79.1287C361.894 77.2754 362.014 75.9105 361.402 73.2324C363.435 68.5596 364.258 65.9001 364.438 60.9959C366.258 62.1789 367.158 62.2463 368.627 61.6914C371.105 60.9854 371.745 60.1018 372.807 58.4734C371.44 58.268 370.537 57.9155 368.644 56.7968C367.161 57.5009 366.288 57.8815 364.195 58.3737C373.278 51.443 376.106 47.2738 369.909 38.4301C371.453 48.4814 368.728 50.5999 361.875 52.4266C357.958 52.0126 356.412 52.5754 353.982 53.9792C350.778 52.8632 349.034 52.8705 346.008 53.8996C341.906 53.9438 340.082 53.1434 337.414 50.7037Z" stroke="#7DDEF5" stroke-width="2"/>
<path d="M336.59 180.689L343.787 319.486L301.211 321.477L295.005 229.273L280.44 241.413L262.767 209.512L292.264 182.843L336.59 180.689ZM470.782 239.043C471.311 244.747 471.189 250.48 470.417 256.24C469.708 261.994 468.396 267.575 466.479 272.984C464.562 278.393 462.06 283.496 458.975 288.294C455.955 293.086 452.361 297.343 448.195 301.064C444.029 304.785 439.343 307.836 434.137 310.215C428.996 312.589 423.346 314.061 417.188 314.633C410.965 315.211 405.076 314.809 399.521 313.429C393.966 312.048 388.798 309.913 384.018 307.022C379.303 304.125 374.988 300.603 371.072 296.455C367.156 292.307 363.758 287.751 360.878 282.788C357.998 277.824 355.648 272.583 353.828 267.063C352.067 261.473 350.924 255.858 350.401 250.218C349.877 244.579 349.966 238.849 350.669 233.03C351.435 227.205 352.777 221.588 354.695 216.18C356.612 210.771 359.113 205.668 362.198 200.87C365.277 196.007 368.868 191.718 372.969 188.003C377.135 184.281 381.821 181.231 387.027 178.851C392.298 176.466 398.012 174.987 404.171 174.416C410.329 173.844 416.153 174.251 421.644 175.638C427.199 177.018 432.366 179.154 437.146 182.045C441.926 184.935 446.244 188.49 450.101 192.709C454.017 196.857 457.415 201.413 460.295 206.376C463.175 211.339 465.496 216.616 467.257 222.206C469.083 227.791 470.258 233.403 470.782 239.043ZM430.018 245.769C429.753 242.917 429.069 239.777 427.966 236.348C426.863 232.92 425.36 229.758 423.457 226.861C421.553 223.965 419.241 221.597 416.52 219.757C413.8 217.917 410.689 217.16 407.188 217.485C403.623 217.816 400.672 219.136 398.337 221.445C396.001 223.754 394.132 226.511 392.73 229.714C391.392 232.911 390.496 236.296 390.043 239.869C389.591 243.442 389.497 246.654 389.761 249.507C390.026 252.359 390.71 255.499 391.813 258.928C392.916 262.356 394.419 265.518 396.322 268.415C398.291 271.305 400.635 273.67 403.356 275.51C406.077 277.349 409.22 278.104 412.785 277.773C416.286 277.448 419.204 276.131 421.54 273.822C423.875 271.512 425.712 268.759 427.05 265.562C428.387 262.365 429.283 258.98 429.736 255.407C430.189 251.834 430.283 248.622 430.018 245.769Z" fill="white"/>
<path d="M336.59 180.689L344.58 180.275L344.167 172.312L336.202 172.699L336.59 180.689ZM343.787 319.486L344.161 327.477L352.193 327.101L351.776 319.071L343.787 319.486ZM301.211 321.477L293.229 322.014L293.755 329.834L301.585 329.468L301.211 321.477ZM295.005 229.273L302.987 228.736L301.933 213.083L289.883 223.128L295.005 229.273ZM280.44 241.413L273.442 245.29L278.13 253.753L285.562 247.559L280.44 241.413ZM262.767 209.512L257.401 203.578L252.692 207.836L255.769 213.389L262.767 209.512ZM292.264 182.843L291.875 174.852L289.019 174.991L286.898 176.909L292.264 182.843ZM328.601 181.104L335.798 319.9L351.776 319.071L344.58 180.275L328.601 181.104ZM343.413 311.494L300.837 313.485L301.585 329.468L344.161 327.477L343.413 311.494ZM309.193 320.94L302.987 228.736L287.023 229.81L293.229 322.014L309.193 320.94ZM289.883 223.128L275.317 235.268L285.562 247.559L300.127 235.418L289.883 223.128ZM287.438 237.537L269.765 205.635L255.769 213.389L273.442 245.29L287.438 237.537ZM268.132 215.446L297.629 188.777L286.898 176.909L257.401 203.578L268.132 215.446ZM292.652 190.834L336.978 188.68L336.202 172.699L291.875 174.852L292.652 190.834ZM470.417 256.24L462.488 255.176L462.482 255.219L462.476 255.263L470.417 256.24ZM466.479 272.984L458.938 270.311L466.479 272.984ZM458.975 288.294L452.246 283.967L452.227 283.998L452.207 284.028L458.975 288.294ZM434.137 310.215L430.812 302.939L430.798 302.945L430.784 302.952L434.137 310.215ZM399.521 313.429L397.591 321.193L399.521 313.429ZM384.018 307.022L379.83 313.838L379.854 313.853L379.878 313.867L384.018 307.022ZM353.828 267.063L346.198 269.467L346.214 269.518L346.23 269.569L353.828 267.063ZM350.669 233.03L342.737 231.986L342.731 232.029L342.726 232.072L350.669 233.03ZM354.695 216.18L347.154 213.507L354.695 216.18ZM362.198 200.87L368.927 205.197L368.942 205.173L368.957 205.15L362.198 200.87ZM372.969 188.003L367.639 182.036L367.619 182.055L367.598 182.074L372.969 188.003ZM387.027 178.851L383.728 171.563L383.715 171.569L383.701 171.575L387.027 178.851ZM421.644 175.638L419.685 183.394L419.7 183.398L419.714 183.401L421.644 175.638ZM450.101 192.709L444.197 198.107L444.24 198.154L444.284 198.201L450.101 192.709ZM460.295 206.376L467.215 202.361L460.295 206.376ZM467.257 222.206L459.627 224.61L459.64 224.652L459.653 224.693L467.257 222.206ZM392.73 229.714L385.401 226.505L385.375 226.565L385.35 226.626L392.73 229.714ZM396.322 268.415L389.637 272.808L389.673 272.863L389.71 272.918L396.322 268.415ZM427.05 265.562L434.43 268.65L427.05 265.562ZM462.816 239.782C463.289 244.877 463.182 250.005 462.488 255.176L478.346 257.304C479.197 250.954 479.333 244.617 478.747 238.303L462.816 239.782ZM462.476 255.263C461.839 260.445 460.659 265.457 458.938 270.311L474.019 275.657C476.133 269.693 477.578 263.543 478.357 257.217L462.476 255.263ZM458.938 270.311C457.226 275.143 454.996 279.691 452.246 283.967L465.704 292.621C469.125 287.302 471.897 281.643 474.019 275.657L458.938 270.311ZM452.207 284.028C449.579 288.198 446.468 291.88 442.866 295.098L453.525 307.03C458.255 302.805 462.33 297.974 465.743 292.56L452.207 284.028ZM442.866 295.098C439.313 298.271 435.306 300.885 430.812 302.939L437.463 317.491C443.381 314.786 448.746 311.299 453.525 307.03L442.866 295.098ZM430.784 302.952C426.541 304.911 421.785 306.172 416.449 306.667L417.928 322.599C424.907 321.951 431.452 320.266 437.491 317.479L430.784 302.952ZM416.449 306.667C411.038 307.169 406.056 306.81 401.45 305.665L397.591 321.193C404.095 322.809 410.892 323.252 417.928 322.599L416.449 306.667ZM401.45 305.665C396.654 304.473 392.235 302.642 388.158 300.177L379.878 313.867C385.362 317.184 391.277 319.624 397.591 321.193L401.45 305.665ZM388.206 300.206C384.108 297.688 380.337 294.616 376.889 290.963L365.255 301.946C369.638 306.59 374.498 310.562 379.83 313.838L388.206 300.206ZM376.889 290.963C373.399 287.266 370.37 283.206 367.798 278.773L353.959 286.803C357.146 292.296 360.913 297.348 365.255 301.946L376.889 290.963ZM367.798 278.773C365.199 274.294 363.075 269.559 361.426 264.558L346.23 269.569C348.222 275.607 350.798 281.355 353.959 286.803L367.798 278.773ZM361.458 264.66C359.862 259.592 358.836 254.534 358.367 249.479L342.435 250.958C343.013 257.182 344.272 263.355 346.198 269.467L361.458 264.66ZM358.367 249.479C357.897 244.424 357.974 239.264 358.611 233.988L342.726 232.072C341.958 238.435 341.857 244.734 342.435 250.958L358.367 249.479ZM358.6 234.074C359.296 228.791 360.509 223.721 362.235 218.852L347.154 213.507C345.046 219.456 343.575 225.619 342.737 231.986L358.6 234.074ZM362.235 218.852C363.947 214.021 366.177 209.473 368.927 205.197L355.469 196.543C352.049 201.862 349.276 207.521 347.154 213.507L362.235 218.852ZM368.957 205.15C371.666 200.872 374.795 197.143 378.34 193.931L367.598 182.074C362.941 186.293 358.889 191.142 355.439 196.59L368.957 205.15ZM378.298 193.969C381.851 190.795 385.858 188.182 390.352 186.127L383.701 171.575C377.784 174.28 372.419 177.767 367.639 182.036L378.298 193.969ZM390.325 186.14C394.733 184.145 399.575 182.877 404.91 182.381L403.431 166.45C396.449 167.098 389.863 168.787 383.728 171.563L390.325 186.14ZM404.91 182.381C410.247 181.886 415.153 182.25 419.685 183.394L423.602 167.881C417.154 166.253 410.411 165.802 403.431 166.45L404.91 182.381ZM419.714 183.401C424.51 184.593 428.93 186.425 433.006 188.89L441.286 175.199C435.803 171.883 429.887 169.443 423.573 167.874L419.714 183.401ZM433.006 188.89C437.116 191.376 440.844 194.439 444.197 198.107L456.006 187.311C451.645 182.541 446.735 178.495 441.286 175.199L433.006 188.89ZM444.284 198.201C447.774 201.898 450.803 205.958 453.376 210.391L467.215 202.361C464.027 196.868 460.26 191.816 455.919 187.217L444.284 198.201ZM453.376 210.391C455.954 214.834 458.039 219.57 459.627 224.61L474.887 219.802C472.953 213.663 470.396 207.844 467.215 202.361L453.376 210.391ZM459.653 224.693C461.301 229.731 462.349 234.758 462.816 239.782L478.747 238.303C478.167 232.048 476.865 225.85 474.861 219.72L459.653 224.693ZM437.984 245.03C437.653 241.47 436.82 237.747 435.582 233.898L420.351 238.798C421.318 241.806 421.853 244.364 422.052 246.509L437.984 245.03ZM435.582 233.898C434.267 229.81 432.457 225.99 430.142 222.467L416.771 231.255C418.263 233.525 419.46 236.03 420.351 238.798L435.582 233.898ZM430.142 222.467C427.691 218.738 424.645 215.594 421.002 213.13L412.039 226.384C413.837 227.6 415.415 229.192 416.771 231.255L430.142 222.467ZM421.002 213.13C416.636 210.178 411.653 209.036 406.449 209.519L407.928 225.451C409.725 225.284 410.964 225.657 412.039 226.384L421.002 213.13ZM406.449 209.519C401.219 210.005 396.486 212.026 392.712 215.756L403.961 227.134C404.859 226.247 406.027 225.627 407.928 225.451L406.449 209.519ZM392.712 215.756C389.611 218.822 387.183 222.435 385.401 226.505L400.058 232.923C401.081 230.586 402.391 228.687 403.961 227.134L392.712 215.756ZM385.35 226.626C383.722 230.514 382.647 234.602 382.107 238.863L397.98 240.875C398.346 237.99 399.061 235.308 400.11 232.802L385.35 226.626ZM382.107 238.863C381.599 242.874 381.465 246.687 381.796 250.246L397.727 248.767C397.528 246.622 397.583 244.009 397.98 240.875L382.107 238.863ZM381.796 250.246C382.126 253.806 382.959 257.528 384.197 261.377L399.428 256.478C398.461 253.47 397.926 250.912 397.727 248.767L381.796 250.246ZM384.197 261.377C385.512 265.466 387.322 269.286 389.637 272.808L403.008 264.021C401.516 261.751 400.319 259.246 399.428 256.478L384.197 261.377ZM389.71 272.918C392.211 276.59 395.263 279.694 398.875 282.137L407.837 268.882C406.008 267.646 404.371 266.02 402.935 263.912L389.71 272.918ZM398.875 282.137C403.27 285.109 408.295 286.224 413.525 285.738L412.046 269.807C410.145 269.983 408.883 269.59 407.837 268.882L398.875 282.137ZM413.525 285.738C418.728 285.255 423.416 283.216 427.164 279.511L415.915 268.133C414.992 269.045 413.843 269.64 412.046 269.807L413.525 285.738ZM427.164 279.511C430.292 276.418 432.707 272.767 434.43 268.65L419.67 262.474C418.717 264.752 417.458 266.607 415.915 268.133L427.164 279.511ZM434.43 268.65C436.057 264.761 437.132 260.674 437.672 256.413L421.799 254.401C421.433 257.286 420.718 259.968 419.67 262.474L434.43 268.65ZM437.672 256.413C438.181 252.402 438.314 248.589 437.984 245.03L422.052 246.509C422.251 248.654 422.197 251.266 421.799 254.401L437.672 256.413Z" fill="#ABBDF3"/>
<path d="M240.816 50.3068L242.615 85.0058L231.971 85.5036L230.419 62.4526L226.778 65.4878L222.36 57.5124L229.734 50.8452L240.816 50.3068ZM274.363 64.8951C274.496 66.3212 274.465 67.7543 274.272 69.1944C274.095 70.6329 273.767 72.0283 273.288 73.3804C272.808 74.7326 272.183 76.0085 271.412 77.2079C270.657 78.4059 269.758 79.4701 268.717 80.4004C267.675 81.3307 266.504 82.0933 265.202 82.6882C263.917 83.2816 262.505 83.6497 260.965 83.7926C259.409 83.9371 257.937 83.8367 256.548 83.4916C255.159 83.1465 253.867 82.6126 252.673 81.8899C251.494 81.1657 250.415 80.2851 249.436 79.2481C248.457 78.2111 247.608 77.0722 246.888 75.8313C246.168 74.5905 245.58 73.2802 245.125 71.9003C244.685 70.5027 244.399 69.099 244.268 67.689C244.137 66.279 244.16 64.8467 244.335 63.392C244.527 61.9357 244.862 60.5315 245.342 59.1793C245.821 57.8271 246.446 56.5513 247.217 55.3518C247.987 54.1361 248.885 53.0639 249.91 52.135C250.952 51.2047 252.123 50.4421 253.425 49.8472C254.742 49.2509 256.171 48.8812 257.711 48.7383C259.25 48.5954 260.706 48.6972 262.079 49.0438C263.468 49.3889 264.76 49.9228 265.954 50.6455C267.149 51.3683 268.229 52.257 269.193 53.3117C270.172 54.3487 271.022 55.4876 271.742 56.7284C272.462 57.9693 273.042 59.2885 273.482 60.686C273.939 62.0821 274.232 63.4851 274.363 64.8951ZM264.172 66.5767C264.106 65.8637 263.935 65.0786 263.66 64.2215C263.384 63.3644 263.008 62.5738 262.532 61.8497C262.056 61.1256 261.478 60.5336 260.798 60.0737C260.118 59.6138 259.34 59.4244 258.465 59.5057C257.574 59.5884 256.836 59.9184 256.252 60.4957C255.668 61.073 255.201 61.7621 254.85 62.5629C254.516 63.3622 254.292 64.2084 254.179 65.1016C254.066 65.9948 254.042 66.798 254.108 67.511C254.174 68.2241 254.345 69.0092 254.621 69.8663C254.897 70.7234 255.273 71.514 255.749 72.2381C256.241 72.9606 256.827 73.5519 257.507 74.0118C258.187 74.4717 258.973 74.6603 259.864 74.5776C260.739 74.4963 261.469 74.1671 262.053 73.5898C262.637 73.0125 263.096 72.3242 263.43 71.5249C263.765 70.7256 263.989 69.8793 264.102 68.9861C264.215 68.0929 264.239 67.2898 264.172 66.5767Z" fill="#7DDEF5"/>
<path d="M442.93 31.5432L444.729 66.2423L434.085 66.74L432.533 43.6891L428.892 46.7242L424.474 38.7489L431.848 32.0816L442.93 31.5432ZM476.478 46.1315C476.61 47.5577 476.58 48.9908 476.386 50.4308C476.209 51.8693 475.881 53.2647 475.402 54.6169C474.923 55.9691 474.297 57.2449 473.526 58.4444C472.771 59.6423 471.873 60.7065 470.831 61.6368C469.79 62.5672 468.618 63.3298 467.317 63.9246C466.031 64.518 464.619 64.8861 463.079 65.0291C461.523 65.1735 460.051 65.0732 458.662 64.7281C457.274 64.383 455.982 63.849 454.787 63.1263C453.608 62.4021 452.529 61.5215 451.55 60.4845C450.571 59.4475 449.722 58.3086 449.002 57.0678C448.282 55.8269 447.694 54.5166 447.239 53.1367C446.799 51.7391 446.513 50.3354 446.382 48.9254C446.252 47.5155 446.274 46.0831 446.449 44.6284C446.641 43.1721 446.977 41.7679 447.456 40.4157C447.935 39.0636 448.561 37.7877 449.332 36.5883C450.102 35.3726 450.999 34.3003 452.025 33.3715C453.066 32.4411 454.238 31.6785 455.539 31.0837C456.857 30.4873 458.285 30.1177 459.825 29.9747C461.365 29.8318 462.821 29.9336 464.193 30.2802C465.582 30.6254 466.874 31.1593 468.069 31.882C469.264 32.6047 470.343 33.4934 471.308 34.5481C472.287 35.5851 473.136 36.724 473.856 37.9648C474.576 39.2057 475.156 40.5249 475.597 41.9225C476.053 43.3185 476.347 44.7215 476.478 46.1315ZM466.287 47.8132C466.221 47.1001 466.05 46.315 465.774 45.4579C465.498 44.6008 465.122 43.8102 464.646 43.0861C464.171 42.3621 463.593 41.7701 462.912 41.3101C462.232 40.8502 461.455 40.6609 460.579 40.7421C459.688 40.8249 458.95 41.1549 458.367 41.7322C457.783 42.3094 457.315 42.9985 456.965 43.7993C456.63 44.5986 456.406 45.4449 456.293 46.3381C456.18 47.2313 456.156 48.0344 456.223 48.7475C456.289 49.4606 456.46 50.2456 456.736 51.1027C457.011 51.9598 457.387 52.7504 457.863 53.4745C458.355 54.1971 458.941 54.7883 459.621 55.2483C460.301 55.7082 461.087 55.8968 461.979 55.814C462.854 55.7328 463.583 55.4035 464.167 54.8262C464.751 54.2489 465.21 53.5607 465.545 52.7613C465.879 51.962 466.103 51.1158 466.216 50.2226C466.329 49.3294 466.353 48.5262 466.287 47.8132Z" fill="#7DDEF5"/>
<path d="M295.45 457.214L293.65 422.514L304.294 422.017L305.846 445.068L309.487 442.033L313.906 450.008L306.531 456.675L295.45 457.214ZM261.902 442.625C261.769 441.199 261.8 439.766 261.993 438.326C262.17 436.887 262.498 435.492 262.977 434.14C263.457 432.788 264.082 431.512 264.853 430.312C265.609 429.114 266.507 428.05 267.548 427.12C268.59 426.19 269.761 425.427 271.063 424.832C272.348 424.239 273.761 423.871 275.3 423.728C276.856 423.583 278.328 423.684 279.717 424.029C281.106 424.374 282.398 424.908 283.593 425.63C284.771 426.355 285.85 427.235 286.829 428.272C287.808 429.309 288.658 430.448 289.378 431.689C290.098 432.93 290.685 434.24 291.14 435.62C291.58 437.018 291.866 438.421 291.997 439.831C292.128 441.241 292.106 442.674 291.93 444.128C291.738 445.585 291.403 446.989 290.924 448.341C290.444 449.693 289.819 450.969 289.048 452.168C288.278 453.384 287.38 454.456 286.355 455.385C285.313 456.316 284.142 457.078 282.84 457.673C281.523 458.269 280.094 458.639 278.554 458.782C277.015 458.925 275.559 458.823 274.186 458.476C272.798 458.131 271.506 457.597 270.311 456.875C269.116 456.152 268.036 455.263 267.072 454.209C266.093 453.172 265.243 452.033 264.523 450.792C263.803 449.551 263.223 448.232 262.783 446.834C262.326 445.438 262.033 444.035 261.902 442.625ZM272.093 440.944C272.159 441.657 272.33 442.442 272.606 443.299C272.881 444.156 273.257 444.947 273.733 445.671C274.209 446.395 274.787 446.987 275.467 447.447C276.147 447.907 276.925 448.096 277.8 448.015C278.691 447.932 279.429 447.602 280.013 447.025C280.597 446.447 281.064 445.758 281.415 444.957C281.749 444.158 281.973 443.312 282.086 442.419C282.2 441.525 282.223 440.722 282.157 440.009C282.091 439.296 281.92 438.511 281.644 437.654C281.368 436.797 280.992 436.006 280.517 435.282C280.024 434.56 279.438 433.968 278.758 433.508C278.078 433.049 277.292 432.86 276.401 432.943C275.526 433.024 274.796 433.353 274.212 433.931C273.628 434.508 273.169 435.196 272.835 435.995C272.5 436.795 272.276 437.641 272.163 438.534C272.05 439.427 272.027 440.231 272.093 440.944Z" fill="#7DDEF5"/>
<path d="M499.13 438.305L497.331 403.606L507.975 403.108L509.527 426.159L513.168 423.124L517.586 431.099L510.212 437.766L499.13 438.305ZM465.582 423.716C465.45 422.29 465.48 420.857 465.674 419.417C465.851 417.978 466.179 416.583 466.658 415.231C467.137 413.879 467.763 412.603 468.534 411.403C469.289 410.205 470.188 409.141 471.229 408.211C472.271 407.281 473.442 406.518 474.744 405.923C476.029 405.33 477.441 404.962 478.981 404.819C480.537 404.674 482.009 404.775 483.398 405.12C484.786 405.465 486.078 405.999 487.273 406.721C488.452 407.446 489.531 408.326 490.51 409.363C491.489 410.4 492.338 411.539 493.058 412.78C493.778 414.021 494.366 415.331 494.821 416.711C495.261 418.109 495.547 419.512 495.678 420.922C495.809 422.332 495.786 423.765 495.611 425.219C495.419 426.676 495.084 428.08 494.604 429.432C494.125 430.784 493.5 432.06 492.728 433.26C491.959 434.475 491.061 435.547 490.036 436.476C488.994 437.407 487.823 438.169 486.521 438.764C485.203 439.36 483.775 439.73 482.235 439.873C480.696 440.016 479.24 439.914 477.867 439.568C476.478 439.222 475.186 438.689 473.991 437.966C472.796 437.243 471.717 436.354 470.753 435.3C469.774 434.263 468.924 433.124 468.204 431.883C467.484 430.642 466.904 429.323 466.464 427.925C466.007 426.529 465.713 425.126 465.582 423.716ZM475.773 422.035C475.84 422.748 476.011 423.533 476.286 424.39C476.562 425.247 476.938 426.038 477.414 426.762C477.89 427.486 478.468 428.078 479.148 428.538C479.828 428.998 480.606 429.187 481.481 429.106C482.372 429.023 483.11 428.693 483.694 428.116C484.278 427.538 484.745 426.849 485.095 426.048C485.43 425.249 485.654 424.403 485.767 423.51C485.88 422.617 485.904 421.813 485.838 421.1C485.771 420.387 485.6 419.602 485.325 418.745C485.049 417.888 484.673 417.097 484.197 416.373C483.705 415.651 483.119 415.059 482.439 414.6C481.759 414.14 480.973 413.951 480.082 414.034C479.206 414.115 478.477 414.444 477.893 415.022C477.309 415.599 476.85 416.287 476.515 417.086C476.181 417.886 475.957 418.732 475.844 419.625C475.731 420.518 475.707 421.322 475.773 422.035Z" fill="#7DDEF5"/>
<g filter="url(#filter2_d_21_100)">
<rect x="434.042" y="10.9749" width="293" height="450" rx="30" transform="rotate(9.35167 434.042 10.9749)" fill="white"/>
<rect x="436.515" y="14.4226" width="287" height="444" rx="27" transform="rotate(9.35167 436.515 14.4226)" stroke="white" stroke-width="6"/>
</g>
<path d="M461.917 177.72C457.24 156.004 457.239 144.247 466.268 124.723C446.1 144.073 440.459 157.097 438.929 183.603C448.162 216.378 460.545 227.362 488.419 241.015L487.637 240.742C478.181 237.433 472.643 235.496 463.617 232.173C453.656 231.17 448.407 232.484 439.648 238.201C446.669 252.168 453.452 254.006 464.844 258.772C475.446 256.486 481.033 255.557 488.488 256.373C486.447 291.028 494.87 303.35 502.173 331.063C496.944 343.412 496.87 349.932 500.522 361.024C516.417 374.933 526.339 374.233 544.595 368.282C559.439 361.149 562.091 353.731 562.584 337.942C580.692 314.906 589.137 301.308 597.274 274.288C605.677 283.517 610.586 285.202 619.566 284.252C634.375 283.929 639.223 279.945 647.498 272.431C640.194 269.3 635.683 266.025 626.781 257.049C617.504 258.807 612.097 259.655 599.734 259.347C660.348 234.007 682.147 214.929 660.537 156.716C654.503 214.877 636.262 222.698 595.481 222.889C574.294 214.888 564.876 215.77 549.313 220.043C533.116 209.175 523.405 206.678 505.071 208C482.188 202.278 473.209 195.173 461.917 177.72Z" stroke="#7DDEF5" stroke-width="8"/>
<path d="M534.047 63.8667C533.64 61.9783 533.64 60.9561 534.425 59.2583C532.671 60.9409 532.181 62.0734 532.048 64.3782C532.851 67.2283 533.927 68.1834 536.351 69.3707L536.283 69.3469C535.461 69.0592 534.979 68.8907 534.194 68.6018C533.328 68.5146 532.872 68.6288 532.11 69.126C532.721 70.3404 533.311 70.5003 534.301 70.9147C535.223 70.7159 535.709 70.6351 536.357 70.7061C536.18 73.7196 536.912 74.7911 537.547 77.2009C537.092 78.2748 537.086 78.8417 537.404 79.8062C538.786 81.0157 539.649 80.9548 541.236 80.4373C542.527 79.8171 542.757 79.172 542.8 77.7991C544.375 75.7959 545.109 74.6135 545.817 72.264C546.547 73.0664 546.974 73.2129 547.755 73.1303C549.043 73.1023 549.465 72.7558 550.184 72.1024C549.549 71.8302 549.157 71.5454 548.383 70.7649C547.576 70.9177 547.106 70.9915 546.031 70.9647C551.302 68.7613 553.197 67.1022 551.318 62.0403C550.793 67.0977 549.207 67.7778 545.661 67.7944C543.819 67.0987 543 67.1754 541.646 67.547C540.238 66.6019 539.393 66.3848 537.799 66.4998C535.809 66.0022 535.029 65.3844 534.047 63.8667Z" stroke="#7DDEF5" stroke-width="2"/>
<path d="M565.047 71.8667C564.64 69.9783 564.64 68.9561 565.425 67.2583C563.671 68.9409 563.181 70.0734 563.048 72.3782C563.851 75.2283 564.927 76.1834 567.351 77.3707L567.283 77.3469C566.461 77.0592 565.979 76.8907 565.194 76.6018C564.328 76.5146 563.872 76.6288 563.11 77.126C563.721 78.3404 564.311 78.5003 565.301 78.9147C566.223 78.7159 566.709 78.6351 567.357 78.7061C567.18 81.7196 567.912 82.7911 568.547 85.2009C568.092 86.2748 568.086 86.8417 568.404 87.8062C569.786 89.0157 570.649 88.9548 572.236 88.4373C573.527 87.8171 573.757 87.172 573.8 85.7991C575.375 83.7959 576.109 82.6135 576.817 80.264C577.547 81.0664 577.974 81.2129 578.755 81.1304C580.043 81.1023 580.465 80.7559 581.184 80.1024C580.549 79.8302 580.157 79.5454 579.383 78.7649C578.576 78.9177 578.106 78.9915 577.031 78.9647C582.302 76.7613 584.197 75.1022 582.318 70.0403C581.793 75.0977 580.207 75.7778 576.661 75.7945C574.819 75.0987 574 75.1754 572.646 75.547C571.238 74.6019 570.393 74.3848 568.799 74.4998C566.809 74.0022 566.029 73.3844 565.047 71.8667Z" stroke="#7DDEF5" stroke-width="2"/>
<path d="M596.047 76.8667C595.64 74.9783 595.64 73.9561 596.425 72.2583C594.671 73.9409 594.181 75.0734 594.048 77.3782C594.851 80.2283 595.927 81.1834 598.351 82.3707L598.283 82.3469C597.461 82.0592 596.979 81.8907 596.194 81.6018C595.328 81.5146 594.872 81.6288 594.11 82.126C594.721 83.3404 595.311 83.5003 596.301 83.9147C597.223 83.7159 597.709 83.6351 598.357 83.7061C598.18 86.7196 598.912 87.7911 599.547 90.2009C599.092 91.2747 599.086 91.8417 599.404 92.8062C600.786 94.0157 601.649 93.9548 603.236 93.4373C604.527 92.8171 604.757 92.172 604.8 90.7991C606.375 88.7959 607.109 87.6135 607.817 85.264C608.547 86.0664 608.974 86.2129 609.755 86.1303C611.043 86.1023 611.465 85.7558 612.184 85.1024C611.549 84.8302 611.157 84.5454 610.383 83.7649C609.576 83.9177 609.106 83.9915 608.031 83.9647C613.302 81.7613 615.197 80.1022 613.318 75.0403C612.793 80.0977 611.207 80.7778 607.661 80.7944C605.819 80.0987 605 80.1754 603.646 80.547C602.238 79.6019 601.393 79.3848 599.799 79.4997C597.809 79.0022 597.029 78.3844 596.047 76.8667Z" stroke="#7DDEF5" stroke-width="2"/>
<path d="M525.71 283.27C524.334 291.622 521.629 298.632 517.595 304.302C513.624 309.982 508.736 314.422 502.93 317.623C497.125 320.824 490.589 322.849 483.323 323.698C476.058 324.546 468.474 324.32 460.573 323.019C456.783 322.395 453.099 321.524 449.522 320.407C445.956 319.226 442.448 317.89 438.999 316.398C435.624 314.853 432.271 313.179 428.939 311.376C425.671 309.585 422.387 307.691 419.086 305.696L429.063 267.948C431.164 269.614 433.442 271.21 435.896 272.736C438.35 274.261 440.895 275.637 443.53 276.863C446.229 278.099 448.955 279.175 451.708 280.09C454.525 281.016 457.282 281.701 459.98 282.145C461.586 282.41 463.566 282.604 465.921 282.728C468.287 282.787 470.593 282.606 472.84 282.185C475.097 281.699 477.076 280.903 478.775 279.797C480.55 278.638 481.622 276.934 481.993 274.685C482.342 272.566 482.033 270.634 481.066 268.891C480.164 267.159 478.828 265.653 477.06 264.372C475.366 263.037 473.379 261.885 471.097 260.916C468.815 259.946 466.48 259.1 464.092 258.376C461.768 257.664 459.52 257.095 457.346 256.672C455.237 256.258 453.475 255.935 452.062 255.702C449.171 255.226 446.195 254.868 443.134 254.628C440.136 254.398 437.161 254.436 434.208 254.742L450.884 177.519L529.283 188.252L524.77 228.879L476.842 218.215L473.054 235.208C476.061 234.978 479.037 234.94 481.98 235.095C484.934 235.185 487.857 235.469 490.748 235.945C496.593 236.907 501.863 238.765 506.556 241.517C511.324 244.216 515.28 247.639 518.424 251.785C521.633 255.943 523.884 260.701 525.179 266.061C526.548 271.367 526.725 277.104 525.71 283.27ZM653.28 283.297C652.349 288.95 650.781 294.465 648.576 299.842C646.435 305.23 643.753 310.298 640.53 315.046C637.306 319.793 633.595 324.098 629.397 327.959C625.262 331.831 620.709 335.04 615.737 337.586C610.765 340.132 605.459 341.898 599.821 342.883C594.246 343.878 588.408 343.873 582.305 342.868C576.138 341.853 570.542 339.974 565.517 337.233C560.492 334.492 556.033 331.119 552.14 327.113C548.311 323.117 545.028 318.618 542.289 313.614C539.55 308.61 537.415 303.343 535.884 297.812C534.354 292.282 533.406 286.616 533.042 280.816C532.752 274.962 533.068 269.241 533.988 263.652C534.909 258.063 536.444 252.543 538.596 247.091C540.812 241.649 543.531 236.555 546.754 231.807C549.977 227.059 553.688 222.755 557.887 218.894C562.097 214.968 566.655 211.727 571.563 209.17C576.535 206.624 581.84 204.858 587.479 203.873C593.182 202.899 599.085 202.915 605.187 203.92C611.29 204.925 616.822 206.792 621.783 209.523C626.808 212.264 631.267 215.637 635.16 219.643C639.053 223.65 642.331 228.181 644.995 233.239C647.734 238.242 649.869 243.51 651.399 249.04C652.93 254.571 653.84 260.263 654.13 266.117C654.483 271.982 654.2 277.708 653.28 283.297ZM612.141 279.491C612.606 276.665 612.739 273.454 612.539 269.858C612.34 266.262 611.686 262.822 610.577 259.538C609.468 256.255 607.83 253.379 605.663 250.911C603.497 248.442 600.679 246.923 597.21 246.351C593.677 245.769 590.488 246.3 587.644 247.943C584.801 249.586 582.295 251.78 580.128 254.524C578.024 257.279 576.302 260.327 574.96 263.669C573.617 267.011 572.714 270.095 572.248 272.922C571.783 275.748 571.65 278.959 571.849 282.555C572.049 286.151 572.703 289.591 573.812 292.875C574.985 296.169 576.655 299.05 578.822 301.518C580.988 303.987 583.838 305.512 587.371 306.093C590.84 306.665 593.997 306.129 596.841 304.486C599.684 302.843 602.158 300.644 604.261 297.889C606.364 295.134 608.087 292.086 609.429 288.744C610.771 285.402 611.675 282.318 612.141 279.491Z" fill="white"/>
<path d="M517.595 304.302L511.077 299.663L511.057 299.691L511.038 299.718L517.595 304.302ZM483.323 323.698L482.395 315.752L483.323 323.698ZM449.522 320.407L447.007 328.002L447.072 328.023L447.138 328.044L449.522 320.407ZM438.999 316.398L435.667 323.672L435.745 323.707L435.823 323.741L438.999 316.398ZM428.939 311.376L425.092 318.391L425.112 318.402L425.132 318.413L428.939 311.376ZM419.086 305.696L411.352 303.652L409.821 309.443L414.948 312.542L419.086 305.696ZM429.063 267.948L434.033 261.679L424.453 254.085L421.329 265.904L429.063 267.948ZM435.896 272.736L431.672 279.529L435.896 272.736ZM443.53 276.863L440.156 284.117L440.177 284.127L440.199 284.136L443.53 276.863ZM451.708 280.09L449.184 287.681L449.197 287.686L449.21 287.69L451.708 280.09ZM465.921 282.728L465.501 290.717L465.61 290.722L465.72 290.725L465.921 282.728ZM472.84 282.185L474.316 290.047L474.42 290.028L474.524 290.005L472.84 282.185ZM478.775 279.797L483.138 286.503L483.144 286.499L483.151 286.494L478.775 279.797ZM481.066 268.891L473.971 272.588L474.02 272.68L474.07 272.772L481.066 268.891ZM477.06 264.372L472.108 270.655L472.236 270.756L472.367 270.851L477.06 264.372ZM464.092 258.376L461.747 266.025L461.76 266.029L461.774 266.033L464.092 258.376ZM457.346 256.672L455.808 264.522L455.815 264.524L457.346 256.672ZM443.134 254.628L443.76 246.652L443.752 246.652L443.745 246.651L443.134 254.628ZM434.208 254.742L426.388 253.053L424.06 263.833L435.03 262.699L434.208 254.742ZM450.884 177.519L451.969 169.593L444.628 168.588L443.064 175.83L450.884 177.519ZM529.283 188.252L537.234 189.136L538.095 181.384L530.368 180.326L529.283 188.252ZM524.77 228.879L523.032 236.688L531.736 238.625L532.721 229.763L524.77 228.879ZM476.842 218.215L478.58 210.406L470.774 208.669L469.034 216.475L476.842 218.215ZM473.054 235.208L465.246 233.468L462.895 244.011L473.666 243.185L473.054 235.208ZM481.98 235.095L481.56 243.084L481.647 243.088L481.735 243.091L481.98 235.095ZM506.556 241.517L502.509 248.418L502.562 248.449L502.616 248.48L506.556 241.517ZM518.424 251.785L512.05 256.619L512.07 256.646L512.091 256.673L518.424 251.785ZM525.179 266.061L517.402 267.939L517.417 268L517.433 268.06L525.179 266.061ZM517.816 281.971C516.597 289.374 514.268 295.179 511.077 299.663L524.113 308.94C528.991 302.085 532.072 293.869 533.603 284.57L517.816 281.971ZM511.038 299.718C507.735 304.443 503.753 308.034 499.068 310.617L506.793 324.629C513.719 320.811 519.513 315.521 524.152 308.885L511.038 299.718ZM499.068 310.617C494.26 313.268 488.738 315.011 482.395 315.752L484.252 331.644C492.44 330.687 499.99 328.38 506.793 324.629L499.068 310.617ZM482.395 315.752C475.937 316.506 469.106 316.317 461.873 315.125L459.273 330.913C467.842 332.324 476.178 332.587 484.252 331.644L482.395 315.752ZM461.873 315.125C458.44 314.56 455.12 313.774 451.906 312.771L447.138 328.044C451.078 329.274 455.125 330.23 459.273 330.913L461.873 315.125ZM452.037 312.813C448.695 311.706 445.407 310.454 442.174 309.055L435.823 323.741C439.488 325.326 443.217 326.747 447.007 328.002L452.037 312.813ZM442.33 309.125C439.119 307.654 435.924 306.06 432.745 304.34L425.132 318.413C428.617 320.298 432.129 322.051 435.667 323.672L442.33 309.125ZM432.785 304.362C429.619 302.626 426.432 300.789 423.225 298.85L414.948 312.542C418.341 314.594 421.723 316.543 425.092 318.391L432.785 304.362ZM426.821 307.74L436.798 269.993L421.329 265.904L411.352 303.652L426.821 307.74ZM424.094 274.217C426.451 276.086 428.979 277.855 431.672 279.529L440.12 265.942C437.905 264.564 435.878 263.142 434.033 261.679L424.094 274.217ZM431.672 279.529C434.401 281.226 437.23 282.756 440.156 284.117L446.904 269.609C444.559 268.519 442.299 267.296 440.12 265.942L431.672 279.529ZM440.199 284.136C443.155 285.49 446.15 286.673 449.184 287.681L454.232 272.499C451.76 271.677 449.304 270.708 446.861 269.589L440.199 284.136ZM449.21 287.69C452.385 288.734 455.543 289.522 458.68 290.039L461.28 274.251C459.02 273.879 456.664 273.298 454.206 272.49L449.21 287.69ZM458.68 290.039C460.674 290.367 462.97 290.583 465.501 290.717L466.342 274.739C464.163 274.624 462.497 274.452 461.28 274.251L458.68 290.039ZM465.72 290.725C468.628 290.799 471.497 290.576 474.316 290.047L471.364 274.322C469.689 274.636 467.946 274.776 466.123 274.73L465.72 290.725ZM474.524 290.005C477.603 289.342 480.515 288.209 483.138 286.503L474.413 273.091C473.636 273.597 472.591 274.055 471.156 274.364L474.524 290.005ZM483.151 286.494C486.955 284.009 489.182 280.26 489.886 275.985L474.099 273.385C474.081 273.496 474.064 273.538 474.068 273.526C474.073 273.513 474.094 273.462 474.14 273.388C474.187 273.314 474.243 273.244 474.302 273.185C474.329 273.157 474.353 273.136 474.372 273.121C474.39 273.106 474.4 273.099 474.4 273.1L483.151 286.494ZM489.886 275.985C490.504 272.235 489.973 268.457 488.062 265.011L474.07 272.772C474.111 272.846 474.118 272.88 474.123 272.91C474.129 272.947 474.147 273.091 474.099 273.385L489.886 275.985ZM488.161 265.195C486.62 262.237 484.407 259.815 481.753 257.893L472.367 270.851C473.25 271.49 473.707 272.081 473.971 272.588L488.161 265.195ZM482.011 258.088C479.685 256.255 477.065 254.759 474.226 253.553L467.968 268.278C469.692 269.011 471.048 269.819 472.108 270.655L482.011 258.088ZM474.226 253.553C471.678 252.47 469.072 251.526 466.411 250.72L461.774 266.033C463.888 266.673 465.953 267.422 467.968 268.278L474.226 253.553ZM466.438 250.728C463.872 249.941 461.351 249.302 458.877 248.82L455.815 264.524C457.688 264.889 459.665 265.386 461.747 266.025L466.438 250.728ZM458.884 248.821C456.731 248.399 454.884 248.059 453.362 247.809L450.762 263.596C452.067 263.811 453.743 264.118 455.808 264.522L458.884 248.821ZM453.362 247.809C450.237 247.294 447.036 246.91 443.76 246.652L442.508 262.603C445.354 262.827 448.105 263.159 450.762 263.596L453.362 247.809ZM443.745 246.651C440.276 246.386 436.821 246.429 433.385 246.784L435.03 262.699C437.501 262.444 439.997 262.411 442.522 262.605L443.745 246.651ZM442.027 256.43L458.703 179.207L443.064 175.83L426.388 253.053L442.027 256.43ZM449.799 185.445L528.198 196.178L530.368 180.326L451.969 169.593L449.799 185.445ZM521.332 187.369L516.819 227.996L532.721 229.763L537.234 189.136L521.332 187.369ZM526.507 221.07L478.58 210.406L475.105 226.024L523.032 236.688L526.507 221.07ZM469.034 216.475L465.246 233.468L480.862 236.949L484.651 219.956L469.034 216.475ZM473.666 243.185C476.337 242.98 478.968 242.947 481.56 243.084L482.401 227.106C479.105 226.932 475.785 226.975 472.443 227.232L473.666 243.185ZM481.735 243.091C484.339 243.171 486.909 243.42 489.448 243.838L492.048 228.051C488.805 227.517 485.53 227.2 482.226 227.099L481.735 243.091ZM489.448 243.838C494.411 244.656 498.735 246.205 502.509 248.418L510.603 234.616C504.991 231.325 498.776 229.159 492.048 228.051L489.448 243.838ZM502.616 248.48C506.487 250.671 509.598 253.385 512.05 256.619L524.799 246.952C520.963 241.892 516.162 237.761 510.497 234.555L502.616 248.48ZM512.091 256.673C514.578 259.895 516.358 263.617 517.402 267.939L532.955 264.182C531.41 257.785 528.687 251.99 524.758 246.898L512.091 256.673ZM517.433 268.06C518.488 272.147 518.676 276.748 517.816 281.971L533.603 284.57C534.775 277.459 534.609 270.587 532.925 264.062L517.433 268.06ZM648.576 299.842L641.174 296.807L641.157 296.847L641.141 296.888L648.576 299.842ZM640.53 315.046L633.911 310.552L640.53 315.046ZM629.397 327.959L623.981 322.07L623.955 322.095L623.928 322.12L629.397 327.959ZM599.821 342.883L598.444 335.002L598.429 335.005L598.414 335.007L599.821 342.883ZM565.517 337.233L561.686 344.257L565.517 337.233ZM552.14 327.113L546.364 332.648L546.383 332.668L546.403 332.688L552.14 327.113ZM533.042 280.816L525.052 281.211L525.054 281.264L525.058 281.318L533.042 280.816ZM538.596 247.091L531.187 244.074L531.17 244.114L531.154 244.154L538.596 247.091ZM546.754 231.807L540.135 227.313L546.754 231.807ZM557.887 218.894L563.302 224.782L563.323 224.763L563.343 224.744L557.887 218.894ZM571.563 209.17L567.917 202.05L567.892 202.062L567.867 202.075L571.563 209.17ZM587.479 203.873L586.132 195.988L586.117 195.99L586.103 195.993L587.479 203.873ZM621.783 209.523L617.925 216.531L617.938 216.539L617.952 216.546L621.783 209.523ZM644.995 233.239L637.917 236.967L637.947 237.024L637.978 237.08L644.995 233.239ZM651.399 249.04L659.11 246.906L651.399 249.04ZM654.13 266.117L646.139 266.512L646.142 266.556L646.144 266.599L654.13 266.117ZM580.128 254.524L573.85 249.565L573.809 249.617L573.769 249.669L580.128 254.524ZM573.812 292.875L566.232 295.434L566.253 295.496L566.275 295.558L573.812 292.875ZM604.261 297.889L610.62 302.744L604.261 297.889ZM645.386 281.997C644.555 287.046 643.153 291.98 641.174 296.807L655.977 302.878C658.408 296.951 660.143 290.854 661.173 284.597L645.386 281.997ZM641.141 296.888C639.213 301.74 636.803 306.291 633.911 310.552L647.148 319.539C650.702 314.305 653.656 308.72 656.01 302.797L641.141 296.888ZM633.911 310.552C631.032 314.793 627.724 318.629 623.981 322.07L634.812 333.848C639.467 329.567 643.581 324.794 647.148 319.539L633.911 310.552ZM623.928 322.12C620.33 325.489 616.389 328.264 612.09 330.465L619.383 344.707C625.028 341.816 630.193 338.173 634.865 333.798L623.928 322.12ZM612.09 330.465C607.85 332.637 603.312 334.152 598.444 335.002L601.197 350.763C607.607 349.644 613.679 347.628 619.383 344.707L612.09 330.465ZM598.414 335.007C593.813 335.829 588.894 335.846 583.605 334.975L581.005 350.762C587.922 351.901 594.679 351.927 601.227 350.758L598.414 335.007ZM583.605 334.975C578.243 334.092 573.515 332.483 569.348 330.21L561.686 344.257C567.569 347.466 574.033 349.614 581.005 350.762L583.605 334.975ZM569.348 330.21C565.01 327.844 561.197 324.954 557.877 321.538L546.403 332.688C550.869 337.284 555.974 341.141 561.686 344.257L569.348 330.21ZM557.916 321.578C554.589 318.105 551.718 314.179 549.306 309.773L535.271 317.455C538.337 323.056 542.034 328.129 546.364 332.648L557.916 321.578ZM549.306 309.773C546.865 305.313 544.962 300.619 543.595 295.679L528.174 299.946C529.868 306.067 532.234 311.907 535.271 317.455L549.306 309.773ZM543.595 295.679C542.213 290.688 541.356 285.57 541.026 280.314L525.058 281.318C525.456 287.663 526.494 293.876 528.174 299.946L543.595 295.679ZM541.032 280.421C540.77 275.114 541.057 269.961 541.882 264.952L526.094 262.352C525.079 268.52 524.735 274.81 525.052 281.211L541.032 280.421ZM541.882 264.952C542.707 259.942 544.087 254.97 546.037 250.027L531.154 244.154C528.802 250.116 527.11 256.184 526.094 262.352L541.882 264.952ZM546.005 250.108C548.015 245.172 550.472 240.574 553.373 236.3L540.135 227.313C536.59 232.535 533.608 238.126 531.187 244.074L546.005 250.108ZM553.373 236.3C556.252 232.059 559.56 228.224 563.302 224.782L552.472 213.005C547.817 217.286 543.703 222.059 540.135 227.313L553.373 236.3ZM563.343 224.744C567.046 221.291 571.017 218.475 575.259 216.265L567.867 202.075C562.294 204.979 557.147 208.645 552.431 213.043L563.343 224.744ZM575.21 216.291C579.45 214.119 583.988 212.604 588.856 211.754L586.103 195.993C579.693 197.112 573.62 199.129 567.917 202.05L575.21 216.291ZM588.826 211.759C593.595 210.945 598.601 210.943 603.887 211.813L606.487 196.026C599.569 194.887 592.769 194.854 586.132 195.988L588.826 211.759ZM603.887 211.813C609.176 212.684 613.831 214.278 617.925 216.531L625.64 202.514C619.813 199.307 613.404 197.165 606.487 196.026L603.887 211.813ZM617.952 216.546C622.29 218.912 626.102 221.802 629.422 225.219L640.897 214.068C636.431 209.472 631.326 205.615 625.614 202.5L617.952 216.546ZM629.422 225.219C632.77 228.664 635.601 232.57 637.917 236.967L652.073 229.51C649.061 223.792 645.335 218.635 640.897 214.068L629.422 225.219ZM637.978 237.08C640.419 241.54 642.322 246.234 643.689 251.174L659.11 246.906C657.416 240.786 655.049 234.945 652.013 229.397L637.978 237.08ZM643.689 251.174C645.059 256.125 645.878 261.234 646.139 266.512L662.12 265.722C661.802 259.292 660.801 253.016 659.11 246.906L643.689 251.174ZM646.144 266.599C646.463 271.89 646.206 277.018 645.386 281.997L661.173 284.597C662.194 278.398 662.504 272.073 662.115 265.635L646.144 266.599ZM620.034 280.791C620.615 277.264 620.751 273.451 620.527 269.414L604.552 270.301C604.727 273.456 604.597 276.066 604.247 278.191L620.034 280.791ZM620.527 269.414C620.289 265.126 619.505 260.973 618.156 256.979L602.997 262.098C603.866 264.671 604.39 267.397 604.552 270.301L620.527 269.414ZM618.156 256.979C616.729 252.751 614.577 248.938 611.676 245.633L599.651 256.188C601.083 257.819 602.207 259.759 602.997 262.098L618.156 256.979ZM611.676 245.633C608.198 241.672 603.666 239.307 598.51 238.458L595.91 254.245C597.691 254.538 598.795 255.213 599.651 256.188L611.676 245.633ZM598.51 238.458C593.327 237.604 588.237 238.362 583.642 241.016L591.647 254.87C592.74 254.238 594.026 253.935 595.91 254.245L598.51 238.458ZM583.642 241.016C579.867 243.198 576.603 246.079 573.85 249.565L586.406 259.482C587.987 257.481 589.735 255.975 591.647 254.87L583.642 241.016ZM573.769 249.669C571.211 253.02 569.136 256.702 567.536 260.688L582.383 266.65C583.467 263.952 584.838 261.538 586.486 259.379L573.769 249.669ZM567.536 260.688C566.029 264.44 564.935 268.094 564.354 271.622L580.142 274.222C580.492 272.096 581.206 269.582 582.383 266.65L567.536 260.688ZM564.354 271.622C563.774 275.149 563.638 278.962 563.862 282.999L579.837 282.112C579.662 278.957 579.792 276.347 580.142 274.222L564.354 271.622ZM563.862 282.999C564.1 287.287 564.884 291.44 566.232 295.434L581.391 290.315C580.522 287.742 579.998 285.016 579.837 282.112L563.862 282.999ZM566.275 295.558C567.766 299.743 569.933 303.519 572.81 306.796L584.834 296.241C583.377 294.581 582.204 292.594 581.348 290.191L566.275 295.558ZM572.81 306.796C576.31 310.784 580.889 313.134 586.072 313.987L588.671 298.2C586.788 297.89 585.667 297.189 584.834 296.241L572.81 306.796ZM586.072 313.987C591.228 314.836 596.279 314.049 600.843 311.413L592.838 297.559C591.714 298.208 590.453 298.493 588.671 298.2L586.072 313.987ZM600.843 311.413C604.651 309.212 607.912 306.291 610.62 302.744L597.902 293.034C596.404 294.997 594.718 296.473 592.838 297.559L600.843 311.413ZM610.62 302.744C613.178 299.393 615.252 295.711 616.853 291.725L602.005 285.763C600.922 288.461 599.551 290.875 597.902 293.034L610.62 302.744ZM616.853 291.725C618.36 287.973 619.453 284.319 620.034 280.791L604.247 278.191C603.897 280.317 603.183 282.831 602.005 285.763L616.853 291.725Z" fill="#ABBDF3"/>
<path d="M464.869 63.3759C464.525 65.4636 463.849 67.2162 462.84 68.6336C461.848 70.0537 460.626 71.1639 459.174 71.964C457.723 72.7642 456.089 73.2704 454.273 73.4826C452.456 73.6949 450.56 73.6383 448.585 73.313C447.637 73.157 446.717 72.9393 445.822 72.6601C444.931 72.3648 444.054 72.0307 443.191 71.6578C442.348 71.2714 441.51 70.8529 440.676 70.4023C439.859 69.9544 439.038 69.481 438.213 68.9822L440.708 59.5453C441.233 59.9617 441.802 60.3607 442.416 60.7421C443.029 61.1236 443.665 61.4675 444.324 61.7739C444.999 62.083 445.681 62.352 446.369 62.5808C447.073 62.8122 447.762 62.9834 448.437 63.0945C448.838 63.1606 449.333 63.2092 449.922 63.2402C450.514 63.2551 451.09 63.2098 451.652 63.1044C452.216 62.9829 452.711 62.7839 453.136 62.5075C453.579 62.2176 453.847 61.7917 453.94 61.2296C454.027 60.6996 453.95 60.2168 453.708 59.7811C453.483 59.3481 453.149 58.9714 452.707 58.6512C452.283 58.3175 451.786 58.0295 451.216 57.7871C450.646 57.5447 450.062 57.3331 449.465 57.1523C448.884 56.9742 448.322 56.8321 447.778 56.7261C447.251 56.6228 446.811 56.542 446.457 56.4838C445.735 56.3648 444.991 56.2753 444.225 56.2152C443.476 56.1578 442.732 56.1673 441.994 56.2436L446.163 36.9379L465.763 39.6213L464.634 49.778L452.652 47.112L451.705 51.3603C452.457 51.3027 453.201 51.2932 453.937 51.3319C454.675 51.3546 455.406 51.4254 456.129 51.5444C457.59 51.7851 458.908 52.2495 460.081 52.9376C461.273 53.6122 462.262 54.4679 463.048 55.5046C463.85 56.5439 464.413 57.7335 464.737 59.0735C465.079 60.4 465.123 61.8341 464.869 63.3759ZM496.762 63.3825C496.529 64.7958 496.137 66.1745 495.586 67.5188C495.05 68.8658 494.38 70.1327 493.574 71.3196C492.768 72.5066 491.841 73.5827 490.791 74.548C489.757 75.5159 488.619 76.3182 487.376 76.9547C486.133 77.5913 484.807 78.0327 483.397 78.2789C482.003 78.5278 480.544 78.5266 479.018 78.2753C477.476 78.0214 476.077 77.5518 474.821 76.8666C473.565 76.1814 472.45 75.338 471.477 74.3364C470.52 73.3375 469.699 72.2126 469.014 70.9617C468.329 69.7107 467.796 68.394 467.413 67.0113C467.03 65.6287 466.793 64.2123 466.702 62.7622C466.63 61.2987 466.709 59.8684 466.939 58.4712C467.169 57.074 467.553 55.6939 468.091 54.3309C468.645 52.9705 469.325 51.6969 470.13 50.51C470.936 49.323 471.864 48.2469 472.914 47.2816C473.966 46.3003 475.106 45.49 476.333 44.8508C477.576 44.2142 478.902 43.7728 480.312 43.5266C481.737 43.283 483.213 43.2869 484.739 43.5381C486.264 43.7894 487.647 44.2563 488.887 44.9389C490.144 45.6242 491.258 46.4675 492.232 47.4691C493.205 48.4706 494.025 49.6036 494.691 50.8679C495.375 52.1188 495.909 53.4356 496.292 54.8183C496.674 56.2009 496.902 57.624 496.974 59.0875C497.063 60.5536 496.992 61.9853 496.762 63.3825ZM486.477 62.4311C486.593 61.7244 486.627 60.9216 486.577 60.0227C486.527 59.1237 486.363 58.2638 486.086 57.4428C485.809 56.6219 485.399 55.9029 484.858 55.2859C484.316 54.6688 483.612 54.2889 482.744 54.1461C481.861 54.0006 481.064 54.1332 480.353 54.544C479.642 54.9548 479.016 55.5032 478.474 56.1892C477.948 56.8779 477.517 57.64 477.182 58.4755C476.846 59.311 476.62 60.082 476.504 60.7887C476.387 61.4953 476.354 62.2981 476.404 63.197C476.454 64.096 476.618 64.956 476.895 65.7769C477.188 66.6004 477.606 67.3208 478.147 67.9378C478.689 68.5549 479.401 68.9361 480.285 69.0816C481.152 69.2244 481.941 69.0904 482.652 68.6797C483.363 68.2689 483.981 67.7192 484.507 67.0305C485.033 66.3418 485.464 65.5797 485.799 64.7442C486.135 63.9087 486.361 63.1377 486.477 62.4311Z" fill="#7DDEF5"/>
<path d="M665.155 96.3594C664.811 98.4472 664.135 100.2 663.126 101.617C662.134 103.037 660.912 104.147 659.46 104.948C658.009 105.748 656.375 106.254 654.558 106.466C652.742 106.678 650.846 106.622 648.871 106.297C647.923 106.14 647.002 105.923 646.108 105.644C645.216 105.348 644.34 105.014 643.477 104.641C642.634 104.255 641.795 103.836 640.962 103.386C640.145 102.938 639.324 102.465 638.499 101.966L640.993 92.5289C641.519 92.9453 642.088 93.3442 642.702 93.7256C643.315 94.1071 643.951 94.451 644.61 94.7575C645.285 95.0666 645.966 95.3355 646.655 95.5643C647.359 95.7957 648.048 95.967 648.723 96.0781C649.124 96.1442 649.619 96.1927 650.208 96.2237C650.799 96.2386 651.376 96.1933 651.938 96.0879C652.502 95.9664 652.997 95.7674 653.421 95.491C653.865 95.2012 654.133 94.7752 654.226 94.2131C654.313 93.6832 654.236 93.2003 653.994 92.7646C653.769 92.3316 653.435 91.955 652.993 91.6347C652.569 91.3011 652.072 91.013 651.502 90.7707C650.931 90.5283 650.348 90.3167 649.751 90.1359C649.17 89.9577 648.607 89.8156 648.064 89.7097C647.537 89.6063 647.096 89.5256 646.743 89.4674C646.02 89.3484 645.276 89.2588 644.511 89.1988C643.762 89.1413 643.018 89.1508 642.279 89.2272L646.448 69.9215L666.048 72.6049L664.92 82.7616L652.938 80.0956L651.991 84.3438C652.743 84.2862 653.487 84.2767 654.223 84.3155C654.961 84.3381 655.692 84.4089 656.415 84.528C657.876 84.7686 659.193 85.233 660.367 85.9211C661.559 86.5958 662.548 87.4514 663.334 88.4881C664.136 89.5274 664.699 90.7171 665.022 92.057C665.365 93.3835 665.409 94.8177 665.155 96.3594ZM697.048 96.366C696.815 97.7793 696.423 99.1581 695.871 100.502C695.336 101.849 694.666 103.116 693.86 104.303C693.054 105.49 692.126 106.566 691.077 107.532C690.043 108.499 688.905 109.302 687.662 109.938C686.419 110.575 685.092 111.016 683.683 111.262C682.289 111.511 680.83 111.51 679.304 111.259C677.762 111.005 676.363 110.535 675.107 109.85C673.851 109.165 672.736 108.321 671.763 107.32C670.805 106.321 669.984 105.196 669.3 103.945C668.615 102.694 668.081 101.377 667.699 99.9949C667.316 98.6122 667.079 97.1959 666.988 95.7458C666.916 94.2823 666.995 92.8519 667.225 91.4547C667.455 90.0575 667.839 88.6774 668.377 87.3144C668.931 85.9541 669.61 84.6804 670.416 83.4935C671.222 82.3066 672.15 81.2305 673.199 80.2652C674.252 79.2838 675.391 78.4735 676.618 77.8343C677.861 77.1977 679.188 76.7564 680.597 76.5101C682.023 76.2666 683.499 76.2704 685.024 76.5217C686.55 76.7729 687.933 77.2398 689.173 77.9224C690.43 78.6077 691.544 79.4511 692.517 80.4526C693.491 81.4541 694.31 82.5871 694.976 83.8514C695.661 85.1024 696.195 86.4192 696.577 87.8018C696.96 89.1844 697.188 90.6075 697.26 92.071C697.348 93.5372 697.278 94.9688 697.048 96.366ZM686.763 95.4146C686.879 94.708 686.912 93.9052 686.862 93.0062C686.813 92.1072 686.649 91.2473 686.372 90.4264C686.095 89.6054 685.685 88.8865 685.143 88.2694C684.602 87.6523 683.897 87.2724 683.03 87.1296C682.147 86.9841 681.35 87.1168 680.639 87.5275C679.928 87.9383 679.301 88.4867 678.759 89.1728C678.234 89.8614 677.803 90.6235 677.467 91.459C677.132 92.2945 676.906 93.0656 676.79 93.7722C676.673 94.4788 676.64 95.2816 676.69 96.1806C676.74 97.0795 676.903 97.9395 677.181 98.7604C677.474 99.584 677.891 100.304 678.433 100.921C678.975 101.538 679.687 101.92 680.57 102.065C681.438 102.208 682.227 102.074 682.938 101.663C683.649 101.252 684.267 100.703 684.793 100.014C685.319 99.3253 685.749 98.5633 686.085 97.7278C686.42 96.8923 686.646 96.1212 686.763 95.4146Z" fill="#7DDEF5"/>
<path d="M413.995 424.518C414.339 422.43 415.015 420.678 416.024 419.26C417.017 417.84 418.239 416.73 419.69 415.93C421.141 415.13 422.775 414.624 424.592 414.411C426.408 414.199 428.304 414.256 430.279 414.581C431.227 414.737 432.148 414.955 433.042 415.234C433.934 415.529 434.811 415.863 435.673 416.236C436.517 416.623 437.355 417.041 438.188 417.492C439.005 417.94 439.826 418.413 440.651 418.912L438.157 428.349C437.631 427.932 437.062 427.533 436.449 427.152C435.835 426.771 435.199 426.427 434.54 426.12C433.865 425.811 433.184 425.542 432.496 425.313C431.791 425.082 431.102 424.911 430.428 424.8C430.026 424.733 429.531 424.685 428.942 424.654C428.351 424.639 427.774 424.684 427.213 424.79C426.648 424.911 426.154 425.11 425.729 425.387C425.285 425.676 425.017 426.102 424.924 426.665C424.837 427.194 424.914 427.677 425.156 428.113C425.382 428.546 425.715 428.923 426.158 429.243C426.581 429.577 427.078 429.865 427.648 430.107C428.219 430.349 428.802 430.561 429.399 430.742C429.98 430.92 430.543 431.062 431.086 431.168C431.613 431.271 432.054 431.352 432.407 431.41C433.13 431.529 433.874 431.619 434.639 431.679C435.388 431.736 436.132 431.727 436.871 431.65L432.702 450.956L413.102 448.273L414.23 438.116L426.212 440.782L427.159 436.534C426.407 436.591 425.663 436.601 424.927 436.562C424.189 436.54 423.458 436.469 422.736 436.35C421.274 436.109 419.957 435.645 418.783 434.957C417.591 434.282 416.602 433.426 415.816 432.39C415.014 431.35 414.452 430.161 414.128 428.821C413.785 427.494 413.741 426.06 413.995 424.518ZM382.103 424.512C382.335 423.098 382.727 421.72 383.279 420.375C383.814 419.028 384.484 417.761 385.29 416.574C386.096 415.388 387.024 414.311 388.073 413.346C389.107 412.378 390.245 411.576 391.488 410.939C392.731 410.303 394.058 409.861 395.467 409.615C396.861 409.366 398.321 409.368 399.846 409.619C401.388 409.873 402.787 410.342 404.043 411.027C405.3 411.713 406.414 412.556 407.388 413.558C408.345 414.557 409.166 415.681 409.85 416.932C410.535 418.183 411.069 419.5 411.451 420.883C411.834 422.265 412.071 423.682 412.162 425.132C412.234 426.595 412.156 428.026 411.925 429.423C411.695 430.82 411.311 432.2 410.774 433.563C410.22 434.924 409.54 436.197 408.734 437.384C407.928 438.571 407 439.647 405.951 440.612C404.898 441.594 403.759 442.404 402.532 443.043C401.289 443.68 399.962 444.121 398.553 444.367C397.127 444.611 395.651 444.607 394.126 444.356C392.6 444.105 391.217 443.638 389.977 442.955C388.721 442.27 387.606 441.427 386.633 440.425C385.659 439.423 384.84 438.291 384.174 437.026C383.489 435.775 382.955 434.458 382.573 433.076C382.19 431.693 381.963 430.27 381.89 428.807C381.802 427.34 381.872 425.909 382.103 424.512ZM392.387 425.463C392.271 426.17 392.238 426.972 392.288 427.871C392.338 428.77 392.501 429.63 392.778 430.451C393.056 431.272 393.465 431.991 394.007 432.608C394.548 433.225 395.253 433.605 396.12 433.748C397.003 433.894 397.8 433.761 398.511 433.35C399.222 432.939 399.849 432.391 400.391 431.705C400.916 431.016 401.347 430.254 401.683 429.419C402.018 428.583 402.244 427.812 402.36 427.105C402.477 426.399 402.51 425.596 402.46 424.697C402.41 423.798 402.247 422.938 401.97 422.117C401.676 421.294 401.259 420.573 400.717 419.956C400.175 419.339 399.463 418.958 398.58 418.812C397.712 418.67 396.923 418.804 396.212 419.214C395.501 419.625 394.883 420.175 394.357 420.864C393.831 421.552 393.401 422.314 393.065 423.15C392.73 423.985 392.504 424.756 392.387 425.463Z" fill="#7DDEF5"/>
<path d="M615.833 457.757C616.177 455.67 616.853 453.917 617.862 452.5C618.854 451.08 620.076 449.969 621.528 449.169C622.979 448.369 624.613 447.863 626.43 447.651C628.246 447.438 630.142 447.495 632.117 447.82C633.065 447.976 633.986 448.194 634.88 448.473C635.772 448.768 636.649 449.103 637.511 449.475C638.354 449.862 639.193 450.28 640.026 450.731C640.843 451.179 641.664 451.652 642.489 452.151L639.995 461.588C639.469 461.172 638.9 460.773 638.286 460.391C637.673 460.01 637.037 459.666 636.378 459.359C635.703 459.05 635.022 458.781 634.334 458.552C633.629 458.321 632.94 458.15 632.265 458.039C631.864 457.973 631.369 457.924 630.78 457.893C630.189 457.878 629.612 457.923 629.051 458.029C628.486 458.15 627.992 458.349 627.567 458.626C627.123 458.916 626.855 459.342 626.762 459.904C626.675 460.434 626.752 460.916 626.994 461.352C627.22 461.785 627.553 462.162 627.996 462.482C628.419 462.816 628.916 463.104 629.486 463.346C630.057 463.589 630.64 463.8 631.237 463.981C631.818 464.159 632.381 464.301 632.924 464.407C633.451 464.51 633.892 464.591 634.245 464.649C634.968 464.768 635.712 464.858 636.477 464.918C637.226 464.975 637.97 464.966 638.709 464.89L634.54 484.195L614.94 481.512L616.068 471.355L628.05 474.021L628.997 469.773C628.245 469.831 627.501 469.84 626.765 469.801C626.027 469.779 625.296 469.708 624.574 469.589C623.112 469.348 621.795 468.884 620.621 468.196C619.429 467.521 618.44 466.665 617.654 465.629C616.852 464.589 616.289 463.4 615.966 462.06C615.623 460.733 615.579 459.299 615.833 457.757ZM583.941 457.751C584.173 456.337 584.565 454.959 585.117 453.614C585.652 452.267 586.322 451.001 587.128 449.814C587.934 448.627 588.862 447.551 589.911 446.585C590.945 445.617 592.083 444.815 593.326 444.179C594.569 443.542 595.896 443.101 597.305 442.854C598.699 442.605 600.159 442.607 601.684 442.858C603.226 443.112 604.625 443.581 605.881 444.267C607.137 444.952 608.252 445.795 609.225 446.797C610.183 447.796 611.004 448.921 611.688 450.172C612.373 451.423 612.907 452.739 613.289 454.122C613.672 455.505 613.909 456.921 614 458.371C614.072 459.835 613.994 461.265 613.763 462.662C613.533 464.059 613.149 465.439 612.611 466.802C612.058 468.163 611.378 469.436 610.572 470.623C609.766 471.81 608.838 472.886 607.789 473.852C606.736 474.833 605.597 475.643 604.37 476.282C603.127 476.919 601.8 477.36 600.391 477.607C598.965 477.85 597.489 477.846 595.964 477.595C594.438 477.344 593.055 476.877 591.815 476.194C590.559 475.509 589.444 474.666 588.471 473.664C587.497 472.663 586.678 471.53 586.012 470.265C585.327 469.014 584.793 467.698 584.411 466.315C584.028 464.932 583.8 463.509 583.728 462.046C583.64 460.58 583.71 459.148 583.941 457.751ZM594.225 458.702C594.109 459.409 594.076 460.212 594.126 461.111C594.176 462.01 594.339 462.869 594.616 463.69C594.893 464.511 595.303 465.23 595.845 465.847C596.386 466.464 597.091 466.844 597.958 466.987C598.841 467.133 599.638 467 600.349 466.589C601.06 466.178 601.687 465.63 602.229 464.944C602.754 464.255 603.185 463.493 603.521 462.658C603.856 461.822 604.082 461.051 604.198 460.345C604.315 459.638 604.348 458.835 604.298 457.936C604.248 457.037 604.085 456.177 603.807 455.356C603.514 454.533 603.097 453.812 602.555 453.195C602.013 452.578 601.301 452.197 600.418 452.052C599.55 451.909 598.761 452.043 598.05 452.454C597.339 452.864 596.721 453.414 596.195 454.103C595.669 454.791 595.239 455.554 594.903 456.389C594.568 457.225 594.342 457.996 594.225 458.702Z" fill="#7DDEF5"/>
<defs>
<filter id="filter0_d_21_100" x="9.09659" y="9.36214" width="403.294" height="508.534" filterUnits="userSpaceOnUse" color-interpolation-filters="sRGB">
<feFlood flood-opacity="0" result="BackgroundImageFix"/>
<feColorMatrix in="SourceAlpha" type="matrix" values="0 0 0 0 0 0 0 0 0 0 0 0 0 0 0 0 0 0 127 0" result="hardAlpha"/>
<feOffset dy="4"/>
<feGaussianBlur stdDeviation="2"/>
<feComposite in2="hardAlpha" operator="out"/>
<feColorMatrix type="matrix" values="0 0 0 0 0 0 0 0 0 0 0 0 0 0 0 0 0 0 0.25 0"/>
<feBlend mode="normal" in2="BackgroundImageFix" result="effect1_dropShadow_21_100"/>
<feBlend mode="normal" in="SourceGraphic" in2="effect1_dropShadow_21_100" result="shape"/>
</filter>
<filter id="filter1_d_21_100" x="202.617" y="5.28979" width="336.058" height="477.872" filterUnits="userSpaceOnUse" color-interpolation-filters="sRGB">
<feFlood flood-opacity="0" result="BackgroundImageFix"/>
<feColorMatrix in="SourceAlpha" type="matrix" values="0 0 0 0 0 0 0 0 0 0 0 0 0 0 0 0 0 0 127 0" result="hardAlpha"/>
<feOffset dy="4"/>
<feGaussianBlur stdDeviation="2"/>
<feComposite in2="hardAlpha" operator="out"/>
<feColorMatrix type="matrix" values="0 0 0 0 0 0 0 0 0 0 0 0 0 0 0 0 0 0 0.25 0"/>
<feBlend mode="normal" in2="BackgroundImageFix" result="effect1_dropShadow_21_100"/>
<feBlend mode="normal" in="SourceGraphic" in2="effect1_dropShadow_21_100" result="shape"/>
</filter>
<filter id="filter2_d_21_100" x="361.392" y="15.4464" width="361.285" height="490.687" filterUnits="userSpaceOnUse" color-interpolation-filters="sRGB">
<feFlood flood-opacity="0" result="BackgroundImageFix"/>
<feColorMatrix in="SourceAlpha" type="matrix" values="0 0 0 0 0 0 0 0 0 0 0 0 0 0 0 0 0 0 127 0" result="hardAlpha"/>
<feOffset dy="4"/>
<feGaussianBlur stdDeviation="2"/>
<feComposite in2="hardAlpha" operator="out"/>
<feColorMatrix type="matrix" values="0 0 0 0 0 0 0 0 0 0 0 0 0 0 0 0 0 0 0.25 0"/>
<feBlend mode="normal" in2="BackgroundImageFix" result="effect1_dropShadow_21_100"/>
<feBlend mode="normal" in="SourceGraphic" in2="effect1_dropShadow_21_100" result="shape"/>
</filter>
</defs>
</svg>
